<svg xmlns="http://www.w3.org/2000/svg" style="fill-rule:evenodd; clip-rule:evenodd">
    <symbol id="logo" viewBox="0 0 40 40" fill="none" xmlns="http://www.w3.org/2000/svg">
        <rect width="40" height="40" rx="8" fill="white"/>
        <path d="M15.7659 8.86314C15.869 9.95536 16.0495 11.0476 16.3332 12.1973C16.7458 13.8931 17.21 15.2727 17.7773 16.4799C18.0094 16.9686 18.3446 17.6009 18.783 18.147C18.9119 18.3195 19.0925 18.4919 19.2988 18.5494C19.4277 18.6069 19.5566 18.5494 19.634 18.4057C19.7371 18.262 19.7887 18.0895 19.8403 17.8883C19.9434 17.371 20.0208 16.8536 19.995 16.3362C19.995 15.8189 19.9692 15.3015 19.9176 14.7554C19.8403 13.8644 19.6856 12.9733 19.4793 11.9961C19.1698 10.5302 18.7572 9.15056 18.2157 7.85714C18.1383 7.85714 18.0867 7.88589 18.0094 7.88589C17.932 7.88589 17.8804 7.91463 17.8031 7.91463C17.1584 8.0296 16.4879 8.25954 15.7143 8.57571C15.7143 8.66194 15.7401 8.71942 15.7401 8.77691L15.7659 8.86314Z" fill="#F18C53"/>
        <path d="M23.667 27.765C23.2288 25.9793 22.739 24.568 22.1203 23.3295C21.811 22.6959 21.5274 22.235 21.1923 21.8318C21.0376 21.6302 20.8829 21.515 20.7282 21.4574C20.6767 21.4286 20.6509 21.4286 20.5994 21.4286C20.4962 21.4286 20.4189 21.4862 20.3673 21.5438C20.2642 21.7166 20.1869 21.8606 20.1611 22.0334C20.0322 22.5806 19.9807 23.1279 20.0064 23.6463C20.0064 24.6832 20.1096 25.7488 20.3416 27.0449C20.6509 28.8306 21.1407 30.5588 21.7852 32.1429C22.6101 31.9988 23.4092 31.7684 24.2084 31.4228C24.2342 31.4228 24.2599 31.394 24.2857 31.394C24.2857 31.3652 24.2857 31.3364 24.2857 31.3076C24.131 30.1267 23.9506 28.9171 23.667 27.765Z" fill="#F18C53"/>
        <path d="M32.0321 21.3915C31.9767 21.3636 31.8936 21.3358 31.8382 21.308C29.8445 20.5009 27.9614 20.0557 26.1892 20C26.0784 20 25.9676 20 25.8569 20C25.4969 20 25.2477 20.0278 24.9707 20.0557C24.6661 20.0835 24.3061 20.1391 23.9738 20.3061C23.8354 20.3896 23.6415 20.5009 23.5862 20.6679C23.5308 20.8349 23.6415 21.0575 23.7523 21.1967C23.7523 21.2245 23.78 21.2245 23.8077 21.2523C23.9738 21.475 24.1954 21.6698 24.4723 21.8646C25.0815 22.3377 25.8015 22.7273 26.7153 23.0891C28.2383 23.7013 29.8168 24.1187 31.3952 24.2857C31.7552 23.3673 32.0044 22.4211 32.1429 21.475C32.1429 21.4471 32.1429 21.4471 32.1429 21.4193C32.1152 21.4193 32.1152 21.4193 32.0875 21.3915H32.0321Z" fill="#F18C53"/>
        <path d="M22.6606 17.8571C22.8433 17.8571 22.9651 17.8295 23.1174 17.8018C23.9396 17.6357 24.6401 17.2481 25.1883 16.9435C26.985 15.8915 28.5991 14.4795 30 12.7907C29.3909 12.0709 28.66 11.4341 27.7159 10.7143C27.4114 10.9081 27.1069 11.1296 26.8023 11.3511C25.1578 12.5969 23.9092 13.8981 22.9651 15.3101C22.6606 15.7807 22.2951 16.3621 22.1733 17.0266C22.1429 17.1927 22.1124 17.4142 22.2038 17.5803C22.2038 17.7464 22.2951 17.8571 22.6606 17.8571Z" fill="#F18C53"/>
        <path d="M13.9804 20C14.396 20 14.673 20 14.9501 19.9724C15.3103 19.9447 15.7536 19.8618 16.1138 19.6682C16.28 19.5853 16.3909 19.4747 16.4186 19.3364C16.4463 19.2258 16.4186 19.0599 16.3078 18.894C16.28 18.8387 16.2523 18.8111 16.2246 18.7558C16.0861 18.5622 15.9199 18.3963 15.6982 18.2304C15.2272 17.8433 14.7008 17.5392 14.0081 17.2074C12.3457 16.4332 10.5447 15.9355 8.63294 15.7143C8.27275 16.6267 7.99568 17.5945 7.85715 18.5622C8.24504 18.7281 8.63294 18.894 9.04854 19.0323C10.8218 19.6406 12.4842 19.9724 13.9804 20Z" fill="#F18C53"/>
        <path d="M17.8571 22.6778C17.8571 22.65 17.8571 22.6222 17.8571 22.6222C17.8571 22.2891 17.7464 22.178 17.4142 22.1502C17.1927 22.1225 16.9712 22.178 16.7774 22.2335C16.1683 22.4001 15.5592 22.7055 14.8394 23.2331C13.289 24.2603 11.9048 25.593 10.7143 27.1756V27.2034C10.7143 27.2034 10.7143 27.2311 10.742 27.2311C11.268 27.9253 11.9324 28.5638 12.7907 29.2857C13.9812 28.425 15.0609 27.37 16.0022 26.2039C16.722 25.3432 17.1927 24.5658 17.5526 23.7606C17.7464 23.3441 17.8295 23.0109 17.8571 22.6778Z" fill="#F18C53"/>
        <path d="M27.2441 17.5714C27.0536 18 27.1352 18.3673 27.4618 18.7041C27.5707 18.7959 27.6795 18.8878 27.8156 18.949C28.3599 19.2245 28.9586 19.2857 29.5302 19.2857C29.639 19.2857 29.7751 19.2551 29.884 19.2551C30.0745 19.2551 30.265 19.2245 30.4555 19.1939C31.0542 19.102 31.5985 18.9184 32.1429 18.7041C32.0068 17.449 31.7074 16.1939 31.272 15C30.8909 15.0612 30.5644 15.1837 30.2378 15.2755C29.3941 15.551 28.7137 15.949 28.115 16.4694C27.6795 16.8367 27.4074 17.1735 27.2441 17.5714Z" fill="#F18C53"/>
        <path d="M18.8232 27.5956C18.6999 27.4061 18.5457 27.2978 18.3916 27.2166C18.0832 27.0813 17.7441 27.1354 17.3741 27.352C16.7266 27.7039 16.3258 28.2452 16.0483 28.6783C15.555 29.4361 15.2158 30.2752 15 31.2496C16.2025 31.7098 17.4666 32.0075 18.7307 32.1429C19.1316 31.1955 19.2857 30.3564 19.2857 29.4361C19.2857 29.3279 19.2549 29.0572 19.2241 28.7865C19.1932 28.2993 19.0699 27.9204 18.8232 27.5956Z" fill="#F18C53"/>
        <path d="M12.5872 21.3265C12.4784 21.2041 12.3153 21.1122 12.1522 21.0204C11.5814 20.7449 10.9833 20.7143 10.4668 20.7143C9.65129 20.7143 8.7814 20.898 7.85715 21.2653C7.99307 22.5204 8.29209 23.7755 8.75422 25C9.32508 24.9082 9.86877 24.7245 10.4124 24.4796C11.2552 24.1122 11.8804 23.6531 12.3697 23.102C12.5872 22.8571 12.7231 22.6122 12.8046 22.3673C12.9134 21.9388 12.859 21.602 12.5872 21.3265Z" fill="#F18C53"/>
        <path d="M21.1459 12.393C21.4234 12.8276 21.8551 12.9634 22.3792 12.7733C22.7184 12.6375 23.0267 12.4473 23.3042 12.1214C24.1367 11.2251 24.6917 10.1658 25 8.72629C23.7667 8.26456 22.5334 7.96579 21.2693 7.85714C20.8993 8.75345 20.7143 9.62261 20.7143 10.5189C20.7143 10.709 20.7143 10.8992 20.7451 11.1165C20.776 11.6325 20.9301 12.0399 21.1459 12.393Z" fill="#F18C53"/>
        <path d="M29.7727 27.2414C29.0341 26.408 28.267 25.8046 27.4432 25.4023C27.0455 25.2011 26.5625 25 25.9943 25H25.8523C25.2557 25.0287 25 25.5172 25 25.9483C25 26.408 25.1136 26.8391 25.3693 27.3563C25.7955 28.2759 26.4489 29.1092 27.358 29.9138C27.3864 29.9425 27.4432 30 27.4716 30C27.5 29.9713 27.5568 29.9425 27.5852 29.9138C28.4943 29.2241 29.2898 28.3908 30 27.4425C29.9432 27.3851 29.9148 27.3563 29.8864 27.2989C29.8295 27.3276 29.8011 27.2701 29.7727 27.2414Z" fill="#F18C53"/>
        <path d="M11.9429 14.2525C12.6857 14.7377 13.3143 14.9375 13.9429 14.9946C14.2571 15.0231 14.5143 14.9375 14.7143 14.7663C14.9143 14.5665 15 14.2525 15 13.853C15 13.5676 14.8571 13.1109 14.6286 12.6257C14.1714 11.6839 13.4857 10.8277 12.5429 10C11.6 10.7135 10.7429 11.5697 10 12.5401C10.5714 13.2251 11.2286 13.7959 11.9429 14.2525Z" fill="#F18C53"/>
    </symbol>

    <symbol id="Analytics" viewBox="0 0 20 20" xmlns="http://www.w3.org/2000/svg">
        <path d="M0.833328 2.5C0.833328 2.03976 1.20642 1.66667 1.66666 1.66667H18.3333C18.7936 1.66667 19.1667 2.03976 19.1667 2.5C19.1667 2.96024 18.7936 3.33333 18.3333 3.33333V9.36777C18.3333 10.0386 18.3333 10.5922 18.2965 11.0432C18.2582 11.5116 18.1761 11.9422 17.97 12.3466C17.6504 12.9738 17.1405 13.4838 16.5133 13.8034C16.1088 14.0094 15.6783 14.0916 15.2098 14.1298C14.7588 14.1667 14.2052 14.1667 13.5344 14.1667H12.3017L15.5335 16.8598C15.887 17.1545 15.9348 17.6799 15.6402 18.0335C15.3455 18.3871 14.8201 18.4348 14.4665 18.1402L11.1737 15.3962C11.0422 15.2866 10.9306 15.1937 10.8333 15.1142V17.5C10.8333 17.9602 10.4602 18.3333 9.99999 18.3333C9.53976 18.3333 9.16666 17.9602 9.16666 17.5V15.1143C9.0694 15.1937 8.95783 15.2866 8.82632 15.3962L5.53348 18.1402C5.17992 18.4348 4.65445 18.3871 4.35981 18.0335C4.06517 17.6799 4.11294 17.1545 4.46651 16.8598L7.69829 14.1667H6.4656C5.79478 14.1667 5.24114 14.1667 4.79014 14.1298C4.32173 14.0916 3.89114 14.0094 3.48669 13.8034C2.85949 13.4838 2.34955 12.9738 2.02997 12.3466C1.8239 11.9422 1.74176 11.5116 1.70349 11.0432C1.66664 10.5922 1.66665 10.0386 1.66666 9.36775V3.33333C1.20642 3.33333 0.833328 2.96024 0.833328 2.5ZM3.33333 3.33333V9.33334C3.33333 10.0472 3.33398 10.5324 3.36462 10.9075C3.39447 11.2728 3.44858 11.4597 3.51498 11.59C3.67477 11.9036 3.92974 12.1586 4.24334 12.3183C4.37368 12.3848 4.56051 12.4389 4.92586 12.4687C5.30093 12.4994 5.78618 12.5 6.49999 12.5H13.5C14.2138 12.5 14.6991 12.4994 15.0741 12.4687C15.4395 12.4389 15.6263 12.3848 15.7566 12.3183C16.0702 12.1586 16.3252 11.9036 16.485 11.59C16.5514 11.4597 16.6055 11.2728 16.6354 10.9075C16.666 10.5324 16.6667 10.0472 16.6667 9.33334V3.33333H3.33333ZM13.3333 5C13.7936 5 14.1667 5.3731 14.1667 5.83333V10C14.1667 10.4602 13.7936 10.8333 13.3333 10.8333C12.8731 10.8333 12.5 10.4602 12.5 10V5.83333C12.5 5.3731 12.8731 5 13.3333 5ZM9.99999 6.66667C10.4602 6.66667 10.8333 7.03976 10.8333 7.5V10C10.8333 10.4602 10.4602 10.8333 9.99999 10.8333C9.53976 10.8333 9.16666 10.4602 9.16666 10V7.5C9.16666 7.03976 9.53976 6.66667 9.99999 6.66667ZM6.66666 8.33334C7.1269 8.33334 7.49999 8.70643 7.49999 9.16667V10C7.49999 10.4602 7.1269 10.8333 6.66666 10.8333C6.20642 10.8333 5.83333 10.4602 5.83333 10V9.16667C5.83333 8.70643 6.20642 8.33334 6.66666 8.33334Z" />
    </symbol>

    <symbol id="digitalTwin" viewBox="0 0 20 20" xmlns="http://www.w3.org/2000/svg">
        <path fill-rule="evenodd" clip-rule="evenodd" d="M6.3144 0.83333C6.30204 0.833053 6.28966 0.833052 6.27727 0.83333L6.0762 0.83333C5.328 0.83332 4.7161 0.833312 4.21881 0.873943C3.70407 0.915998 3.23919 1.0057 2.80503 1.22692C2.12555 1.57313 1.57312 2.12556 1.22692 2.80503C1.0057 3.23919 0.915995 3.70407 0.87394 4.21881C0.833309 4.7161 0.833317 5.328 0.833327 6.0762V13.9238C0.833324 14.1564 0.833321 14.3758 0.83454 14.5827C0.832507 14.6182 0.832737 14.6539 0.835293 14.6897C0.838726 15.1034 0.84814 15.4654 0.87394 15.7812C0.915995 16.2959 1.0057 16.7608 1.22692 17.195C1.57312 17.8744 2.12555 18.4269 2.80503 18.7731C3.23918 18.9943 3.70407 19.084 4.21881 19.126C4.7161 19.1667 5.32799 19.1667 6.07618 19.1667H13.6855C13.6979 19.1669 13.7103 19.1669 13.7228 19.1667H13.9238C14.672 19.1667 15.2839 19.1667 15.7812 19.126C16.2959 19.084 16.7608 18.9943 17.195 18.7731C17.8744 18.4269 18.4269 17.8744 18.7731 17.195C18.9943 16.7608 19.084 16.2959 19.1261 15.7812C19.1667 15.2839 19.1667 14.672 19.1667 13.9238V6.07618C19.1667 5.32799 19.1667 4.7161 19.1261 4.21881C19.084 3.70407 18.9943 3.23919 18.7731 2.80503C18.4269 2.12556 17.8744 1.57313 17.195 1.22692C16.7608 1.0057 16.2959 0.915998 15.7812 0.873943C15.2839 0.833312 14.672 0.83332 13.9238 0.83333L6.3144 0.83333ZM14.2452 17.4998C14.8488 17.499 15.2905 17.4939 15.6455 17.4649C16.0571 17.4313 16.2783 17.3696 16.4383 17.2881C16.8042 17.1016 17.1016 16.8042 17.2881 16.4383C17.3696 16.2783 17.4313 16.0571 17.4649 15.6455C17.4993 15.2241 17.5 14.6805 17.5 13.8889V6.11111C17.5 5.31951 17.4993 4.77592 17.4649 4.35453C17.4313 3.94286 17.3696 3.72172 17.2881 3.56168C17.1016 3.19581 16.8042 2.89835 16.4383 2.71193C16.2783 2.63038 16.0571 2.56871 15.6455 2.53507C15.2241 2.50064 14.6805 2.5 13.8889 2.5H7.57859L10.7581 9.6539C10.7607 9.65956 10.7632 9.66525 10.7657 9.67095L14.2452 17.4998ZM12.4214 17.5L9.60843 11.1708L2.50889 15.115C2.51405 15.3133 2.5222 15.4879 2.53507 15.6455C2.56871 16.0571 2.63038 16.2783 2.71193 16.4383C2.89835 16.8042 3.19581 17.1016 3.56168 17.2881C3.72172 17.3696 3.94286 17.4313 4.35453 17.4649C4.77592 17.4993 5.3195 17.5 6.11111 17.5H12.4214ZM2.49999 13.2134V6.11111C2.49999 5.31951 2.50064 4.77592 2.53507 4.35453C2.56871 3.94286 2.63038 3.72172 2.71193 3.56168C2.89835 3.19581 3.19581 2.89835 3.56168 2.71193C3.72172 2.63038 3.94286 2.56871 4.35453 2.53507C4.70951 2.50607 5.15119 2.50104 5.75481 2.50017L8.92885 9.64178L2.49999 13.2134Z" />
    </symbol>

    <symbol id="Communication" viewBox="0 0 20 20" xmlns="http://www.w3.org/2000/svg">
        <path fill-rule="evenodd" clip-rule="evenodd" d="M4.1492 8.33333C4.1492 4.19016 7.512 0.833328 11.6579 0.833328C15.8039 0.833328 19.1667 4.19016 19.1667 8.33333C19.1667 9.26764 18.9952 10.1639 18.6813 10.9911C18.651 11.071 18.6333 11.1177 18.6211 11.1522C18.6194 11.157 18.618 11.1611 18.6169 11.1645C18.617 11.1659 18.6171 11.1674 18.6173 11.169C18.6199 11.1966 18.6245 11.2342 18.6332 11.3056L18.9698 14.0539C18.9854 14.1807 19.003 14.3244 19.0072 14.4494C19.0118 14.5876 19.0061 14.802 18.9036 15.0271C18.7756 15.3084 18.5475 15.533 18.2627 15.6562C18.0343 15.7549 17.8187 15.7557 17.6804 15.7478C17.5556 15.7407 17.4126 15.7196 17.287 15.701L14.6234 15.3085C14.55 15.2977 14.5116 15.2921 14.4835 15.2888C14.4829 15.2887 14.4823 15.2886 14.4817 15.2886C14.4788 15.2895 14.4755 15.2907 14.4718 15.292C14.4364 15.3043 14.3885 15.3223 14.3062 15.3533C13.4815 15.6638 12.5886 15.8333 11.6579 15.8333C11.5104 15.8333 11.3637 15.8291 11.2181 15.8206C10.4279 17.7762 8.55143 19.1667 6.33509 19.1667C5.73086 19.1667 5.14884 19.0623 4.60633 18.8699C4.51676 18.8381 4.4613 18.8184 4.42066 18.8049C4.41411 18.8028 4.40862 18.801 4.4041 18.7995C4.40325 18.7996 4.40237 18.7997 4.40144 18.7998C4.37313 18.803 4.3345 18.8082 4.26262 18.8181L1.78002 19.1589C1.51006 19.196 1.23903 19.0987 1.05424 18.8985C0.869446 18.6982 0.794237 18.4202 0.852839 18.1541L1.35963 15.8527C1.37723 15.7728 1.38667 15.7295 1.39273 15.6977C1.39315 15.6956 1.39353 15.6936 1.39386 15.6917C1.39231 15.6863 1.39032 15.6794 1.38779 15.671C1.37413 15.6255 1.35404 15.5636 1.32141 15.4631C1.14603 14.9235 1.05149 14.3471 1.05149 13.75C1.05149 11.5649 2.32095 9.66159 4.1641 8.80928C4.15421 8.65181 4.1492 8.49311 4.1492 8.33333ZM5.81592 8.35902C5.98661 8.34203 6.15979 8.33333 6.33509 8.33333C9.27612 8.33333 11.6187 10.7818 11.6187 13.75C11.6187 13.89 11.6135 14.0289 11.6032 14.1664C11.6215 14.1666 11.6397 14.1667 11.6579 14.1667C12.3849 14.1667 13.0791 14.0345 13.7189 13.7935C13.7305 13.7892 13.7424 13.7847 13.7545 13.7801C13.8714 13.7358 14.0102 13.6833 14.1371 13.6565C14.253 13.632 14.3521 13.6213 14.4706 13.6207C14.5999 13.6199 14.7313 13.6395 14.8369 13.6553C14.847 13.6568 14.8568 13.6582 14.8664 13.6597L17.286 14.0162L16.9789 11.5082C16.9778 11.4989 16.9766 11.4893 16.9754 11.4795C16.9626 11.3765 16.9468 11.2495 16.9497 11.125C16.9524 11.0107 16.9639 10.9156 16.9885 10.8041C17.0155 10.682 17.0665 10.5481 17.1099 10.4343C17.1144 10.4226 17.1188 10.411 17.1231 10.3998C17.3664 9.75852 17.5 9.06246 17.5 8.33333C17.5 5.1127 14.8855 2.49999 11.6579 2.49999C8.43042 2.49999 5.81586 5.1127 5.81586 8.33333C5.81586 8.3419 5.81588 8.35046 5.81592 8.35902ZM9.83731 14.6927C9.91214 14.3922 9.95203 14.0764 9.95203 13.75C9.95203 11.6556 8.3097 9.99999 6.33509 9.99999C4.36049 9.99999 2.71816 11.6556 2.71816 13.75C2.71816 14.1705 2.78463 14.5731 2.90648 14.9481C2.91131 14.9629 2.91626 14.9781 2.92128 14.9934C2.96793 15.1361 3.02067 15.2975 3.04184 15.4331C3.06171 15.5603 3.06648 15.6582 3.05908 15.7868C3.05123 15.9232 3.02004 16.0636 2.99454 16.1784C2.99206 16.1896 2.98964 16.2005 2.9873 16.2111L2.73758 17.3452L4.03594 17.1669C4.0455 17.1656 4.05532 17.1642 4.06537 17.1628C4.16836 17.1485 4.29543 17.1308 4.41738 17.1317C4.53277 17.1325 4.61877 17.1413 4.73192 17.164C4.852 17.188 4.9959 17.2393 5.12292 17.2846C5.1367 17.2896 5.15028 17.2944 5.16361 17.2991C5.53018 17.4292 5.92388 17.5 6.33509 17.5C7.98632 17.5 9.40519 16.3423 9.82564 14.7383C9.82912 14.7229 9.83302 14.7077 9.83731 14.6927Z"/>
    </symbol>

    <symbol id="People" viewBox="0 0 20 20" xmlns="http://www.w3.org/2000/svg">
        <path fill-rule="evenodd" clip-rule="evenodd" d="M7.91666 3.33334C6.53595 3.33334 5.41666 4.45263 5.41666 5.83334C5.41666 7.21405 6.53595 8.33334 7.91666 8.33334C9.29737 8.33334 10.4167 7.21405 10.4167 5.83334C10.4167 4.45263 9.29737 3.33334 7.91666 3.33334ZM3.74999 5.83334C3.74999 3.53215 5.61547 1.66667 7.91666 1.66667C10.2178 1.66667 12.0833 3.53215 12.0833 5.83334C12.0833 8.13452 10.2178 10 7.91666 10C5.61547 10 3.74999 8.13452 3.74999 5.83334ZM12.1442 2.42962C12.3169 2.00301 12.8027 1.79717 13.2293 1.96986C14.7548 2.58735 15.8333 4.08339 15.8333 5.83334C15.8333 7.58329 14.7548 9.07933 13.2293 9.69682C12.8027 9.86951 12.3169 9.66366 12.1442 9.23705C11.9715 8.81044 12.1774 8.32461 12.604 8.15193C13.5217 7.78044 14.1667 6.88121 14.1667 5.83334C14.1667 4.78547 13.5217 3.88624 12.604 3.51475C12.1774 3.34206 11.9715 2.85624 12.1442 2.42962ZM6.63706 11.6667H9.19626C9.94773 11.6667 10.5539 11.6667 11.0472 11.7003C11.5545 11.7349 12.0031 11.8079 12.4278 11.9838C13.4488 12.4067 14.2599 13.2179 14.6828 14.2388C14.8588 14.6636 14.9317 15.1121 14.9663 15.6194C15 16.1128 15 16.7189 15 17.4704V17.5C15 17.9602 14.6269 18.3333 14.1667 18.3333C13.7064 18.3333 13.3333 17.9602 13.3333 17.5C13.3333 16.712 13.3329 16.1628 13.3035 15.7329C13.2747 15.3105 13.2208 15.0645 13.143 14.8766C12.8893 14.2641 12.4026 13.7774 11.79 13.5236C11.6022 13.4458 11.3562 13.3919 10.9338 13.3631C10.5039 13.3338 9.95463 13.3333 9.16666 13.3333H6.66666C5.87869 13.3333 5.32945 13.3338 4.89954 13.3631C4.47711 13.3919 4.23111 13.4458 4.04329 13.5236C3.43072 13.7774 2.94403 14.2641 2.6903 14.8766C2.6125 15.0645 2.5586 15.3105 2.52978 15.7329C2.50045 16.1628 2.5 16.712 2.5 17.5C2.5 17.9602 2.1269 18.3333 1.66666 18.3333C1.20642 18.3333 0.833329 17.9602 0.833329 17.5L0.833328 17.4704C0.833323 16.7189 0.833318 16.1128 0.866978 15.6194C0.90159 15.1121 0.97456 14.6636 1.1505 14.2388C1.57339 13.2179 2.38453 12.4067 3.40548 11.9838C3.83023 11.8079 4.2788 11.7349 4.78608 11.7003C5.27942 11.6667 5.8856 11.6667 6.63706 11.6667ZM15.0263 12.3973C15.141 11.9516 15.5953 11.6833 16.041 11.798C17.838 12.2605 19.1667 13.8907 19.1667 15.8333V17.5C19.1667 17.9602 18.7936 18.3333 18.3333 18.3333C17.8731 18.3333 17.5 17.9602 17.5 17.5V15.8333C17.5 14.6696 16.7041 13.6896 15.6256 13.4121C15.1799 13.2973 14.9116 12.843 15.0263 12.3973Z"/>
    </symbol>

    <symbol id="Organizations" viewBox="0 0 20 20" xmlns="http://www.w3.org/2000/svg">
        <path fill-rule="evenodd" clip-rule="evenodd" d="M9.88535 1.66662C9.92301 1.66664 9.96122 1.66666 10 1.66666C10.0388 1.66666 10.077 1.66664 10.1146 1.66662C10.7775 1.66626 11.2697 1.66599 11.6961 1.78024C12.8464 2.08846 13.7449 2.98696 14.0531 4.13726C14.1217 4.39349 14.149 4.67348 14.1598 4.99999L15.6988 4.99999C16.1381 4.99998 16.517 4.99997 16.8292 5.02547C17.1586 5.05239 17.4863 5.11182 17.8016 5.27248C18.272 5.51216 18.6545 5.89461 18.8942 6.36502C19.0548 6.68033 19.1143 7.00802 19.1412 7.33747C19.1667 7.64961 19.1667 8.02857 19.1667 8.46786V14.8655C19.1667 15.3047 19.1667 15.6837 19.1412 15.9959C19.1143 16.3253 19.0548 16.653 18.8942 16.9683C18.6545 17.4387 18.272 17.8212 17.8016 18.0608C17.4863 18.2215 17.1586 18.2809 16.8292 18.3079C16.517 18.3334 16.1381 18.3333 15.6988 18.3333H4.30119C3.86191 18.3333 3.48295 18.3334 3.17081 18.3079C2.84135 18.2809 2.51367 18.2215 2.19835 18.0608C1.72795 17.8212 1.3455 17.4387 1.10581 16.9683C0.945152 16.653 0.885722 16.3253 0.858804 15.9959C0.833301 15.6837 0.833314 15.3047 0.833329 14.8654V8.46787C0.833314 8.02858 0.833301 7.64961 0.858804 7.33747C0.885722 7.00802 0.945152 6.68033 1.10581 6.36502C1.3455 5.89461 1.72795 5.51216 2.19835 5.27248C2.51367 5.11182 2.84135 5.05239 3.17081 5.02547C3.48295 4.99997 3.86192 4.99998 4.30121 4.99999L5.84018 4.99999C5.85095 4.67348 5.87826 4.39349 5.94691 4.13726C6.25513 2.98696 7.15363 2.08846 8.30393 1.78024C8.73031 1.66599 9.22253 1.66626 9.88535 1.66662ZM5.83333 6.66666H4.33333C3.85287 6.66666 3.54264 6.66731 3.30653 6.6866C3.08014 6.7051 2.99621 6.73649 2.955 6.75749C2.7982 6.83738 2.67072 6.96487 2.59082 7.12167C2.56983 7.16287 2.53843 7.2468 2.51994 7.47319C2.50064 7.7093 2.5 8.01953 2.5 8.49999V14.8333C2.5 15.3138 2.50064 15.624 2.51994 15.8601C2.53843 16.0865 2.56983 16.1705 2.59082 16.2117C2.67072 16.3685 2.7982 16.4959 2.955 16.5758C2.99621 16.5968 3.08014 16.6282 3.30653 16.6467C3.54264 16.666 3.85287 16.6667 4.33333 16.6667H5.83333V6.66666ZM7.5 16.6667V6.66666H12.5V16.6667H7.5ZM14.1667 16.6667H15.6667C16.1471 16.6667 16.4574 16.666 16.6935 16.6467C16.9199 16.6282 17.0038 16.5968 17.045 16.5758C17.2018 16.4959 17.3293 16.3685 17.4092 16.2117C17.4302 16.1705 17.4616 16.0865 17.4801 15.8601C17.4993 15.624 17.5 15.3138 17.5 14.8333V8.49999C17.5 8.01953 17.4993 7.7093 17.4801 7.47319C17.4616 7.2468 17.4302 7.16287 17.4092 7.12167C17.3293 6.96487 17.2018 6.83738 17.045 6.75749C17.0038 6.73649 16.9199 6.7051 16.6935 6.6866C16.4574 6.66731 16.1471 6.66666 15.6667 6.66666H14.1667V16.6667ZM12.4918 4.99999H7.50821C7.51587 4.78535 7.53026 4.66762 7.55679 4.56863C7.7109 3.99348 8.16014 3.54423 8.7353 3.39012C8.92053 3.34049 9.17137 3.33333 10 3.33333C10.8286 3.33333 11.0795 3.34049 11.2647 3.39012C11.8398 3.54423 12.2891 3.99348 12.4432 4.56863C12.4697 4.66762 12.4841 4.78535 12.4918 4.99999Z" />
    </symbol>

    <symbol id="Marketing" viewBox="0 0 20 20" xmlns="http://www.w3.org/2000/svg">
        <path fill-rule="evenodd" clip-rule="evenodd" d="M14.088 4.48158C13.6375 5.3182 13.3333 6.53119 13.3333 7.91666C13.3333 9.30213 13.6375 10.5151 14.088 11.3517C14.4239 11.9755 14.7799 12.2949 15.0842 12.4259L15.4772 12.4973C15.8253 12.4671 16.3028 12.1736 16.7453 11.3517C17.1958 10.5151 17.5 9.30213 17.5 7.91666C17.5 6.53119 17.1958 5.3182 16.7453 4.48158C16.3028 3.65972 15.8253 3.36625 15.4772 3.33599L15.0842 3.40743C14.7799 3.53837 14.4239 3.85776 14.088 4.48158ZM12.5269 3.8724C11.9796 4.97337 11.6667 6.39534 11.6667 7.91666C11.6667 9.43797 11.9796 10.8599 12.5269 11.9609L4.68536 10.5352C3.85962 10.385 3.61453 10.3325 3.43185 10.2428C3.00804 10.0346 2.69243 9.65646 2.56342 9.20225C2.50781 9.00647 2.5 8.75594 2.5 7.91666C2.5 7.07738 2.50781 6.82685 2.56342 6.63106C2.69243 6.17685 3.00804 5.79868 3.43185 5.5905C3.61453 5.50077 3.85962 5.44827 4.68536 5.29813L12.5269 3.8724ZM14.6201 1.79783L4.38722 3.65835C4.34929 3.66525 4.31189 3.67202 4.27501 3.67871C3.61177 3.79891 3.11602 3.88875 2.69703 4.09456C1.84941 4.51092 1.21818 5.26727 0.960164 6.1757C0.832622 6.62475 0.832909 7.12857 0.833293 7.80261C0.833315 7.84009 0.833336 7.8781 0.833336 7.91666C0.833336 7.95521 0.833315 7.99322 0.833293 8.03071C0.832909 8.70475 0.832622 9.20856 0.960164 9.65761C1.21818 10.566 1.84941 11.3224 2.69703 11.7388C2.89523 11.8361 3.11061 11.9075 3.35277 11.9685L3.66547 16.3463C3.67947 16.5426 3.6932 16.7351 3.71788 16.8981C3.74516 17.0781 3.79408 17.2878 3.91386 17.4965C4.08102 17.7876 4.33222 18.0215 4.63456 18.1675C4.85119 18.2721 5.06388 18.306 5.2454 18.3204C5.40971 18.3334 5.60273 18.3334 5.79951 18.3333H7.3381C7.56397 18.3334 7.78214 18.3334 7.96581 18.3179C8.16605 18.3011 8.40436 18.2612 8.64076 18.1338C8.96601 17.9586 9.2238 17.6802 9.37362 17.3424C9.4825 17.097 9.50394 16.8563 9.50538 16.6554C9.5067 16.4711 9.48994 16.2535 9.4726 16.0283L9.24411 13.058L14.6201 14.0355C14.8698 14.12 15.1356 14.1667 15.4167 14.1667C16.6755 14.1667 17.6259 13.2318 18.2128 12.1419C18.8179 11.0181 19.1667 9.52273 19.1667 7.91666C19.1667 6.31058 18.8179 4.81524 18.2128 3.69141C17.6259 2.60152 16.6755 1.66666 15.4167 1.66666C15.1356 1.66666 14.8698 1.71328 14.6201 1.79783ZM7.54881 12.7498L5.047 12.2949L5.3261 16.2023C5.34263 16.4337 5.35218 16.5588 5.36575 16.6484C5.36626 16.6518 5.36677 16.655 5.36726 16.6581C5.37033 16.6583 5.37358 16.6586 5.377 16.6589C5.46732 16.666 5.59285 16.6667 5.82483 16.6667H7.31017C7.5745 16.6667 7.72097 16.666 7.82607 16.6571C7.83049 16.6568 7.83466 16.6564 7.8386 16.656C7.83867 16.652 7.83873 16.6479 7.83876 16.6434C7.83951 16.538 7.82897 16.3919 7.80869 16.1283L7.54881 12.7498Z" />
    </symbol>

    <symbol id="Sales" viewBox="0 0 20 20" xmlns="http://www.w3.org/2000/svg">
        <path fill-rule="evenodd" clip-rule="evenodd" d="M5.89244 5.84495V7.50001C5.89244 7.96024 6.26553 8.33334 6.72577 8.33334C7.18601 8.33334 7.5591 7.96024 7.5591 7.50001V5.83334L12.4409 5.83334V7.50001C12.4409 7.96025 12.814 8.33334 13.2742 8.33334C13.7345 8.33334 14.1076 7.96025 14.1076 7.50001V5.84495C14.2087 5.84883 14.3015 5.854 14.3879 5.8609C14.7147 5.88698 14.883 5.93401 15.0027 5.99186C15.2922 6.13176 15.5367 6.35739 15.7032 6.64226C15.7735 6.76254 15.8363 6.93354 15.8929 7.2655C15.9511 7.60716 15.9924 8.05 16.0526 8.70306L16.5437 14.0364C16.6148 14.8087 16.6628 15.337 16.6664 15.7466C16.67 16.1477 16.6283 16.3536 16.5681 16.4962C16.4226 16.8411 16.1689 17.123 15.8509 17.2996C15.7226 17.3708 15.5312 17.4314 15.1419 17.4649C14.7432 17.4993 14.2243 17.5 13.4616 17.5H6.53836C5.77569 17.5 5.25675 17.4993 4.85813 17.4649C4.4688 17.4314 4.27735 17.3708 4.14912 17.2996C3.8311 17.123 3.57744 16.8411 3.4319 16.4962C3.37173 16.3536 3.32998 16.1477 3.33354 15.7466C3.33718 15.337 3.38515 14.8087 3.45627 14.0364L3.9474 8.70306C4.00754 8.05 4.0489 7.60716 4.1071 7.26549C4.16364 6.93354 4.22653 6.76254 4.29682 6.64226C4.46329 6.35739 4.7078 6.13176 4.9973 5.99186C5.11701 5.93401 5.28525 5.88698 5.61207 5.86089C5.69851 5.854 5.79133 5.84882 5.89244 5.84495ZM14.0268 4.1749C14.2041 4.17972 14.3684 4.18737 14.5205 4.19951C14.9503 4.23381 15.3478 4.30755 15.7279 4.49123C16.3187 4.77677 16.8104 5.2336 17.1422 5.80137C17.3547 6.16515 17.4628 6.55631 17.5359 6.98562C17.6062 7.39811 17.6528 7.90522 17.7093 8.51835L18.2066 13.9191C18.2737 14.6471 18.3287 15.2446 18.333 15.7318C18.3375 16.2352 18.2906 16.7012 18.1036 17.1443C17.8149 17.8283 17.3076 18.3971 16.6599 18.7567C16.2385 18.9907 15.7811 19.0827 15.2849 19.1254C14.8063 19.1667 14.2151 19.1667 13.4983 19.1667H6.50169C5.78484 19.1667 5.19373 19.1667 4.71505 19.1254C4.21892 19.0827 3.76153 18.9907 3.34009 18.7567C2.69238 18.3971 2.18508 17.8283 1.89638 17.1443C1.70939 16.7012 1.66247 16.2352 1.66694 15.7318C1.67127 15.2446 1.7263 14.6471 1.79335 13.9191L2.2907 8.51828C2.34715 7.90518 2.39384 7.39809 2.4641 6.98562C2.53723 6.55631 2.64525 6.16515 2.85784 5.80136C3.18962 5.2336 3.68125 4.77677 4.27211 4.49123C4.6522 4.30755 5.0497 4.23381 5.47948 4.19951C5.63156 4.18737 5.79594 4.17972 5.9732 4.1749C6.34972 2.27777 7.99906 0.833344 10 0.833344C12.0009 0.833344 13.6503 2.27777 14.0268 4.1749ZM12.3024 4.16668C11.9657 3.18953 11.0537 2.50001 10 2.50001C8.94624 2.50001 8.03428 3.18953 7.69755 4.16668L12.3024 4.16668Z"/>
    </symbol>

    <symbol id="Lease" viewBox="0 0 20 20" xmlns="http://www.w3.org/2000/svg">
        <path d="M4.99999 15.8333C5.46023 15.8333 5.83333 15.4602 5.83333 15C5.83333 14.5398 5.46023 14.1667 4.99999 14.1667C4.53976 14.1667 4.16666 14.5398 4.16666 15C4.16666 15.4602 4.53976 15.8333 4.99999 15.8333Z" />
        <path fill-rule="evenodd" clip-rule="evenodd" d="M15.2441 1.07745C15.4798 0.841727 15.8333 0.769165 16.1428 0.892971L18.2262 1.7263C18.5898 1.87175 18.803 2.25075 18.7387 2.63703L18.322 5.13703C18.255 5.53886 17.9074 5.83337 17.5 5.83337H16.6667V6.6667C16.6667 7.12694 16.2936 7.50003 15.8333 7.50003H15V8.33337C15 8.55438 14.9122 8.76634 14.7559 8.92262L11.45 12.2285C11.591 12.7112 11.6667 13.2218 11.6667 13.75C11.6667 16.7416 9.24154 19.1667 6.24999 19.1667C3.25845 19.1667 0.833328 16.7416 0.833328 13.75C0.833328 10.7585 3.25845 8.33334 6.24999 8.33334C6.77825 8.33334 7.28885 8.40896 7.77155 8.54997L15.2441 1.07745ZM13.3333 7.98819L10.6838 10.6377C10.323 10.1246 9.8754 9.67702 9.36233 9.31621L16.034 2.64451L16.9844 3.02466L16.7941 4.1667H15.8333C15.3731 4.1667 15 4.5398 15 5.00003V5.83337H14.1667C13.7064 5.83337 13.3333 6.20646 13.3333 6.6667V7.98819ZM6.24999 17.5C8.32106 17.5 9.99999 15.8211 9.99999 13.75C9.99999 11.6789 8.32106 10 6.24999 10C4.17893 10 2.49999 11.6789 2.49999 13.75C2.49999 15.8211 4.17893 17.5 6.24999 17.5Z" />
    </symbol>

    <symbol id="Security" viewBox="0 0 20 20" xmlns="http://www.w3.org/2000/svg">
        <path fill-rule="evenodd" clip-rule="evenodd" d="M9.76165 0.907147C9.91973 0.884304 10.0803 0.884304 10.2384 0.907147C10.4206 0.933475 10.5901 0.997521 10.7247 1.04838C10.737 1.05303 10.7491 1.05757 10.7608 1.06197L15.2289 2.73753C15.2655 2.75125 15.3018 2.7648 15.3378 2.77824C15.8526 2.97045 16.3048 3.13924 16.6529 3.44609C16.9575 3.71453 17.1922 4.05311 17.3366 4.43256C17.5016 4.86632 17.5009 5.34892 17.5001 5.89845C17.5001 5.93686 17.5 5.97561 17.5 6.01468V10C17.5 12.3555 16.2189 14.3194 14.8341 15.762C13.44 17.2144 11.845 18.2402 11.0016 18.7322C10.9905 18.7387 10.9791 18.7454 10.9674 18.7522C10.8135 18.8426 10.6138 18.9599 10.3495 19.0166C10.1333 19.063 9.86675 19.063 9.65054 19.0166C9.38625 18.9599 9.18648 18.8426 9.03257 18.7522C9.02093 18.7454 9.00955 18.7387 8.99842 18.7322C8.155 18.2402 6.55997 17.2144 5.16589 15.762C3.78108 14.3194 2.50001 12.3555 2.50001 10V6.01468C2.50001 5.97561 2.49995 5.93687 2.4999 5.89846C2.4991 5.34892 2.4984 4.86632 2.66346 4.43256C2.80785 4.05311 3.04249 3.71453 3.34708 3.44609C3.69527 3.13924 4.14738 2.97044 4.66221 2.77823C4.6982 2.7648 4.73449 2.75125 4.77107 2.73753L9.23924 1.06197C9.25096 1.05757 9.26299 1.05303 9.27531 1.04838C9.40992 0.997521 9.57945 0.933475 9.76165 0.907147ZM10.8333 2.86918L14.6437 4.29808C15.3314 4.55597 15.4638 4.61963 15.551 4.69649C15.6525 4.78596 15.7307 4.89882 15.7789 5.02531C15.8202 5.13394 15.8333 5.28022 15.8333 6.01468V10C15.8333 11.7349 14.8836 13.3037 13.6317 14.6079C12.69 15.5889 11.6307 16.3636 10.8333 16.8793V2.86918ZM9.16667 16.8793C8.36935 16.3636 7.30997 15.5889 6.36827 14.6079C5.11641 13.3037 4.16667 11.7349 4.16667 10V6.01468C4.16667 5.28022 4.17982 5.13394 4.22116 5.02531C4.26929 4.89882 4.3475 4.78596 4.44903 4.69649C4.53624 4.61963 4.66858 4.55597 5.35628 4.29808L9.16667 2.86918V16.8793Z" />
    </symbol>

    <symbol id="Projects" viewBox="0 0 20 20" xmlns="http://www.w3.org/2000/svg">
        <path fill-rule="evenodd" clip-rule="evenodd" d="M1.66667 5.00001C1.66667 4.07954 2.41286 3.33334 3.33334 3.33334C4.25381 3.33334 5.00001 4.07954 5.00001 5.00001C5.00001 5.92048 4.25381 6.66668 3.33334 6.66668C2.41286 6.66668 1.66667 5.92048 1.66667 5.00001ZM6.66667 5.00001C6.66667 4.53977 7.03977 4.16668 7.50001 4.16668H17.5C17.9602 4.16668 18.3333 4.53977 18.3333 5.00001C18.3333 5.46025 17.9602 5.83334 17.5 5.83334L7.50001 5.83334C7.03977 5.83334 6.66667 5.46025 6.66667 5.00001ZM1.66667 10C1.66667 9.07954 2.41286 8.33334 3.33334 8.33334C4.25381 8.33334 5.00001 9.07954 5.00001 10C5.00001 10.9205 4.25381 11.6667 3.33334 11.6667C2.41286 11.6667 1.66667 10.9205 1.66667 10ZM6.66667 10C6.66667 9.53977 7.03977 9.16668 7.50001 9.16668L17.5 9.16668C17.9602 9.16668 18.3333 9.53977 18.3333 10C18.3333 10.4602 17.9602 10.8333 17.5 10.8333L7.50001 10.8333C7.03977 10.8333 6.66667 10.4602 6.66667 10ZM1.66667 15C1.66667 14.0795 2.41286 13.3333 3.33334 13.3333C4.25381 13.3333 5.00001 14.0795 5.00001 15C5.00001 15.9205 4.25381 16.6667 3.33334 16.6667C2.41286 16.6667 1.66667 15.9205 1.66667 15ZM6.66667 15C6.66667 14.5398 7.03977 14.1667 7.50001 14.1667L17.5 14.1667C17.9602 14.1667 18.3333 14.5398 18.3333 15C18.3333 15.4602 17.9602 15.8333 17.5 15.8333L7.50001 15.8333C7.03977 15.8333 6.66667 15.4602 6.66667 15Z"/>
    </symbol>

    <symbol id="Maintanance" viewBox="0 0 20 20" xmlns="http://www.w3.org/2000/svg">
        <path fill-rule="evenodd" clip-rule="evenodd" d="M1.91075 1.07741C2.13394 0.85422 2.46408 0.776284 2.76353 0.8761L5.26353 1.70943C5.60381 1.82286 5.83334 2.14131 5.83334 2.5V4.65482L8.42494 7.24643C8.36471 6.92285 8.33333 6.58973 8.33333 6.25C8.33333 3.25846 10.7585 0.833336 13.75 0.833336C14.7389 0.833336 15.6682 1.09909 16.4678 1.56363C16.6915 1.69358 16.8421 1.92003 16.8755 2.17654C16.9089 2.43304 16.8213 2.69052 16.6384 2.87344L14.4487 5.06312C14.274 5.23785 14.1789 5.33391 14.1158 5.40822C14.1133 5.41118 14.1109 5.414 14.1087 5.41667C14.1109 5.41934 14.1133 5.42215 14.1158 5.42511C14.1789 5.49942 14.274 5.59549 14.4487 5.77022L14.6464 5.96794C14.8212 6.14267 14.9172 6.23782 14.9916 6.3009C14.9945 6.30341 14.9973 6.30578 15 6.30799C15.0027 6.30578 15.0055 6.30341 15.0084 6.3009C15.0828 6.23782 15.1788 6.14267 15.3536 5.96794L17.4018 3.91968C17.5989 3.72259 17.8815 3.63708 18.1548 3.69184C18.4281 3.74659 18.6559 3.93436 18.7619 4.19217C19.023 4.82773 19.1667 5.52314 19.1667 6.25C19.1667 8.75384 17.4678 10.8609 15.1599 11.4814L17.6726 13.994C18.6884 15.0098 18.6884 16.6567 17.6726 17.6725C16.6568 18.6883 15.0099 18.6883 13.9941 17.6725L10 13.6785L6.00592 17.6726C4.99013 18.6884 3.34321 18.6884 2.32741 17.6726C1.31162 16.6568 1.31162 15.0099 2.32742 13.9941L7.57149 8.75L4.65482 5.83333H2.5C2.14131 5.83333 1.82286 5.60381 1.70943 5.26353L0.8761 2.76353C0.776284 2.46408 0.85422 2.13394 1.07741 1.91075L1.91075 1.07741ZM4.16667 4.16667V3.10063L2.72508 2.6201L2.6201 2.72508L3.10063 4.16667H4.16667ZM9.33848 9.34004L3.50593 15.1726C3.14101 15.5375 3.14101 16.1291 3.50593 16.4941C3.87084 16.859 4.46249 16.859 4.82741 16.4941L10.7916 10.5299C10.8074 10.5141 10.8235 10.4979 10.8399 10.4813C10.8739 10.4471 10.9094 10.4114 10.9462 10.3753L11.0271 10.2944C11.121 10.2005 11.2221 10.1213 11.3281 10.0556C11.3594 10.0352 11.3914 10.0161 11.4239 9.99874C11.5053 9.95519 11.6041 9.90721 11.7242 9.87066C11.8444 9.8341 11.9532 9.81893 12.045 9.80978C12.063 9.80799 12.0809 9.80663 12.0987 9.80564C12.3237 9.78703 12.5478 9.80993 12.7546 9.86667C12.8412 9.89045 12.9291 9.91121 13.0183 9.92881C13.0186 9.92888 13.019 9.92896 13.0194 9.92903C13.0355 9.93222 13.0518 9.9353 13.068 9.93828C13.1742 9.95777 13.282 9.97278 13.3913 9.98312C13.5092 9.99428 13.6288 10 13.75 10C15.8211 10 17.5 8.32107 17.5 6.25C17.5 6.22633 17.4998 6.20272 17.4993 6.17917L16.5133 7.16523C16.3646 7.31397 16.2198 7.45883 16.0871 7.57147C15.9414 7.69516 15.7565 7.82814 15.515 7.90658C15.1803 8.01535 14.8197 8.01535 14.485 7.90658C14.2435 7.82814 14.0586 7.69516 13.9129 7.57147C13.7802 7.45883 13.6354 7.31398 13.4867 7.16525L13.2514 6.92994C13.1027 6.78124 12.9578 6.63642 12.8452 6.50374C12.7215 6.35804 12.5885 6.17313 12.5101 5.9317C12.4013 5.59696 12.4013 5.23638 12.5101 4.90164C12.5885 4.66021 12.7215 4.4753 12.8452 4.32959C12.9578 4.19692 13.1027 4.05211 13.2514 3.90341L14.566 2.58885C14.3036 2.53069 14.0306 2.5 13.75 2.5C11.6789 2.5 10 4.17893 10 6.25C10 6.50075 10.0245 6.74496 10.071 6.98062L10.074 6.99604C10.1114 7.18542 10.1439 7.35041 10.1648 7.4828C10.1845 7.60693 10.2077 7.7792 10.1902 7.95497C10.1811 8.04683 10.1659 8.15561 10.1293 8.27576C10.0928 8.3959 10.0448 8.4947 10.0013 8.5761C9.88171 8.79949 9.68307 8.99678 9.51865 9.16008C9.50209 9.17654 9.48587 9.19264 9.47011 9.2084L9.34004 9.33848C9.33978 9.33874 9.33952 9.339 9.33926 9.33926C9.339 9.33952 9.33874 9.33978 9.33848 9.34004ZM11.1786 12.5L15.1726 16.494C15.5375 16.8589 16.1292 16.8589 16.4941 16.494C16.859 16.1291 16.859 15.5374 16.4941 15.1725L12.9257 11.6042C12.8489 11.5925 12.7726 11.5791 12.6969 11.5642C12.4876 11.5229 12.3541 11.4967 12.2569 11.4814C12.2379 11.4784 12.2225 11.4761 12.21 11.4745C12.207 11.4772 12.2036 11.4802 12.2 11.4835C12.1513 11.5276 12.0878 11.5908 11.9772 11.7013C11.9749 11.7036 11.9725 11.706 11.9701 11.7084L11.1786 12.5Z" />
    </symbol>

    <symbol id="HR" viewBox="0 0 20 20" xmlns="http://www.w3.org/2000/svg">
        <g>
            <path fill-rule="evenodd" clip-rule="evenodd" d="M5.63225 0.833313L10 0.833314C10.4602 0.833314 10.8333 1.20641 10.8333 1.66665C10.8333 2.12688 10.4602 2.49998 10 2.49998H5.66666C4.95285 2.49998 4.4676 2.50063 4.09253 2.53127C3.72718 2.56112 3.54035 2.61523 3.41001 2.68164C3.09641 2.84143 2.84144 3.09639 2.68165 3.41C2.61524 3.54033 2.56114 3.72717 2.53129 4.09251C2.50064 4.46759 2.5 4.95283 2.5 5.66665V14.1664C3.19616 13.6433 4.06161 13.3333 5 13.3333H10.8333C10.866 13.3333 10.8981 13.3333 10.9298 13.3333C11.6111 13.3331 12.0755 13.333 12.4795 13.4134C14.1324 13.7422 15.4245 15.0342 15.7533 16.6871C15.7995 16.9197 15.8191 17.1722 15.8274 17.4747C15.8546 17.4728 15.8813 17.4708 15.9075 17.4687C16.2728 17.4388 16.4596 17.3847 16.59 17.3183C16.9036 17.1585 17.1586 16.9036 17.3183 16.59C17.3847 16.4596 17.4389 16.2728 17.4687 15.9075C17.4993 15.5324 17.5 15.0471 17.5 14.3333V9.99998C17.5 9.53974 17.8731 9.16665 18.3333 9.16665C18.7936 9.16665 19.1667 9.53974 19.1667 9.99998V14.3678C19.1667 15.0386 19.1667 15.5922 19.1298 16.0432C19.0916 16.5116 19.0094 16.9422 18.8034 17.3466C18.4838 17.9738 17.9738 18.4838 17.3466 18.8033C16.9422 19.0094 16.5116 19.0916 16.0432 19.1298C15.7564 19.1532 15.4282 19.1618 15.0547 19.1649C15.0366 19.1661 15.0184 19.1666 15 19.1666C14.9856 19.1666 14.9714 19.1663 14.9572 19.1656C14.7716 19.1667 14.5753 19.1667 14.3678 19.1666H5.63223C4.96143 19.1667 4.4078 19.1667 3.95681 19.1298C3.48839 19.0916 3.05781 19.0094 2.65336 18.8033C2.02615 18.4838 1.51622 17.9738 1.19664 17.3466C1.13584 17.2273 1.08582 17.1057 1.04454 16.9815C0.993599 16.8809 0.962871 16.7698 0.956028 16.6548C0.913591 16.4579 0.887414 16.2544 0.870157 16.0432C0.833309 15.5922 0.833318 15.0385 0.833329 14.3677V5.63223C0.833318 4.96142 0.833309 4.40779 0.870157 3.95679C0.908428 3.48838 0.990565 3.05779 1.19664 2.65335C1.51622 2.02614 2.02615 1.5162 2.65336 1.19663C3.05781 0.99055 3.48839 0.908413 3.95681 0.870142C4.4078 0.833294 4.96144 0.833303 5.63225 0.833313ZM14.1606 17.5C14.1545 17.2699 14.1424 17.1317 14.1186 17.0123C13.9214 16.0205 13.1461 15.2453 12.1544 15.048C11.9332 15.004 11.6477 15 10.8333 15H5C3.94597 15 3.04261 15.6529 2.67543 16.5775C2.67749 16.5817 2.67957 16.5859 2.68165 16.59C2.84144 16.9036 3.09641 17.1585 3.41001 17.3183C3.54035 17.3847 3.72718 17.4388 4.09253 17.4687C4.4676 17.4993 4.95285 17.5 5.66666 17.5H14.1606ZM15.8333 0.833314C16.2936 0.833314 16.6667 1.20641 16.6667 1.66665V4.6548L17.7441 3.57739C18.0695 3.25196 18.5971 3.25196 18.9226 3.57739C19.248 3.90283 19.248 4.43047 18.9226 4.7559L16.4226 7.2559C16.0971 7.58134 15.5695 7.58134 15.2441 7.2559L12.7441 4.7559C12.4186 4.43047 12.4186 3.90283 12.7441 3.57739C13.0695 3.25196 13.5971 3.25196 13.9226 3.57739L15 4.6548V1.66665C15 1.20641 15.3731 0.833314 15.8333 0.833314ZM8.33333 5.41665C6.95262 5.41665 5.83333 6.53594 5.83333 7.91665C5.83333 9.29736 6.95262 10.4166 8.33333 10.4166C9.71404 10.4166 10.8333 9.29736 10.8333 7.91665C10.8333 6.53594 9.71404 5.41665 8.33333 5.41665ZM4.16666 7.91665C4.16666 5.61546 6.03214 3.74998 8.33333 3.74998C10.6345 3.74998 12.5 5.61546 12.5 7.91665C12.5 10.2178 10.6345 12.0833 8.33333 12.0833C6.03214 12.0833 4.16666 10.2178 4.16666 7.91665Z"/>
        </g>
        <defs>
            <clipPath id="clip0_48_531">
                <rect width="20" height="20"/>
            </clipPath>
        </defs>
    </symbol>

    <symbol id="Facility" viewBox="0 0 20 20" xmlns="http://www.w3.org/2000/svg">
        <path fill-rule="evenodd" clip-rule="evenodd" d="M5.13454 1.66669H8.19878C8.63807 1.66667 9.01704 1.66666 9.32919 1.69216C9.65864 1.71908 9.98632 1.77851 10.3016 1.93917C10.772 2.17886 11.1545 2.56131 11.3942 3.03171C11.5548 3.34703 11.6143 3.67471 11.6412 4.00417C11.6667 4.3163 11.6667 4.69527 11.6667 5.13455V8.33335L14.8654 8.33335C15.3047 8.33334 15.6837 8.33333 15.9959 8.35883C16.3253 8.38575 16.653 8.44518 16.9683 8.60584C17.4387 8.84552 17.8212 9.22797 18.0608 9.69838C18.2215 10.0137 18.2809 10.3414 18.3079 10.6708C18.3334 10.983 18.3333 11.3619 18.3333 11.8012V16.6667C18.7936 16.6667 19.1667 17.0398 19.1667 17.5C19.1667 17.9603 18.7936 18.3334 18.3333 18.3334H1.66666C1.20642 18.3334 0.833328 17.9603 0.833328 17.5C0.833328 17.0398 1.20642 16.6667 1.66666 16.6667V5.13457C1.66665 4.69528 1.66663 4.31631 1.69214 4.00417C1.71905 3.67471 1.77848 3.34703 1.93915 3.03171C2.17883 2.56131 2.56128 2.17886 3.03169 1.93917C3.347 1.77851 3.67468 1.71908 4.00414 1.69216C4.31628 1.66666 4.69525 1.66667 5.13454 1.66669ZM3.33333 16.6667H10V5.16669C10 4.68623 9.99935 4.376 9.98006 4.13989C9.96156 3.9135 9.93016 3.82957 9.90917 3.78836C9.82927 3.63156 9.70179 3.50408 9.54499 3.42418C9.50379 3.40319 9.41985 3.37179 9.19347 3.35329C8.95735 3.334 8.64712 3.33336 8.16666 3.33336H5.16666C4.6862 3.33336 4.37597 3.334 4.13986 3.35329C3.91347 3.37179 3.82954 3.40319 3.78834 3.42418C3.63153 3.50408 3.50405 3.63156 3.42416 3.78836C3.40316 3.82957 3.37176 3.9135 3.35327 4.13988C3.33398 4.376 3.33333 4.68623 3.33333 5.16669V16.6667ZM11.6667 10V16.6667H16.6667V11.8334C16.6667 11.3529 16.666 11.0427 16.6467 10.8066C16.6282 10.5802 16.5968 10.4962 16.5758 10.455C16.4959 10.2982 16.3685 10.1707 16.2117 10.0908C16.1705 10.0699 16.0865 10.0385 15.8601 10.02C15.624 10.0007 15.3138 10 14.8333 10H11.6667ZM4.58333 5.83335C4.58333 5.37312 4.95642 5.00002 5.41666 5.00002H7.91666C8.3769 5.00002 8.75 5.37312 8.75 5.83335C8.75 6.29359 8.3769 6.66669 7.91666 6.66669H5.41666C4.95642 6.66669 4.58333 6.29359 4.58333 5.83335ZM4.58333 9.16669C4.58333 8.70645 4.95642 8.33335 5.41666 8.33335H7.91666C8.3769 8.33335 8.75 8.70645 8.75 9.16669C8.75 9.62693 8.3769 10 7.91666 10H5.41666C4.95642 10 4.58333 9.62693 4.58333 9.16669ZM4.58333 12.5C4.58333 12.0398 4.95642 11.6667 5.41666 11.6667H7.91666C8.3769 11.6667 8.75 12.0398 8.75 12.5C8.75 12.9603 8.3769 13.3334 7.91666 13.3334H5.41666C4.95642 13.3334 4.58333 12.9603 4.58333 12.5Z"/>
    </symbol>

    <symbol id="generalSettings" viewBox="0 0 20 20" xmlns="http://www.w3.org/2000/svg">
        <path fill-rule="evenodd" clip-rule="evenodd" d="M11.671 1.25165L11.6689 1.25041C11.1686 0.955285 10.5624 0.833313 10.0031 0.833313C9.44258 0.833313 8.83543 0.955842 8.33282 1.24942L3.74956 3.92615C3.73284 3.93591 3.71646 3.94626 3.70045 3.95718L3.67471 3.97472C3.27998 4.24385 2.94517 4.47211 2.68566 4.67978C2.41501 4.89636 2.16656 5.13593 1.98687 5.44994C1.80236 5.77237 1.72946 6.10405 1.69672 6.44039C1.66663 6.74949 1.66665 7.11805 1.66667 7.53098V7.53104V12.4604V12.4605C1.66665 12.8756 1.66663 13.2456 1.69668 13.5557C1.72935 13.8927 1.80207 14.2251 1.98635 14.5481C2.16599 14.8629 2.41453 15.1029 2.68544 15.3199C2.94507 15.5278 3.27999 15.7561 3.67467 16.0252L3.70045 16.0428C3.71646 16.0537 3.73284 16.064 3.74956 16.0738L8.33289 18.7506C8.8355 19.0442 9.44258 19.1666 10.0031 19.1666C10.5624 19.1666 11.1687 19.0447 11.6689 18.7495L11.671 18.7483L16.2505 16.0738C16.2672 16.064 16.2836 16.0537 16.2996 16.0428L16.3253 16.0252L16.3254 16.0251C16.7201 15.7561 17.0549 15.5278 17.3144 15.3202C17.585 15.1036 17.8335 14.864 18.0132 14.55C18.1977 14.2276 18.2706 13.8959 18.3033 13.5596C18.3334 13.2505 18.3334 12.8819 18.3333 12.4689V7.53104C18.3334 7.11808 18.3334 6.7495 18.3033 6.44039C18.2706 6.10405 18.1977 5.77237 18.0132 5.44994C17.8335 5.13593 17.585 4.89636 17.3144 4.67978C17.0549 4.47212 16.7201 4.24387 16.3254 3.97477L16.3253 3.97473L16.2996 3.95718C16.2836 3.94626 16.2672 3.93591 16.2505 3.92615L11.671 1.25165ZM9.1672 2.70677C9.35624 2.59634 9.65746 2.51681 10.0031 2.51681C10.3493 2.51681 10.6463 2.59653 10.829 2.70455L15.3911 5.36892C15.8051 5.6512 16.0796 5.8395 16.2794 5.99937C16.4775 6.15789 16.5416 6.24239 16.5702 6.29244C16.594 6.33407 16.6253 6.40643 16.6446 6.60513C16.6657 6.82203 16.6667 7.10694 16.6667 7.56732V12.4326C16.6667 12.893 16.6657 13.1779 16.6446 13.3948C16.6253 13.5935 16.594 13.6659 16.5702 13.7075C16.5416 13.7576 16.4775 13.8421 16.2794 14.0006C16.0796 14.1605 15.8051 14.3488 15.3911 14.631L10.8329 17.2931L10.829 17.2954C10.6463 17.4034 10.3493 17.4831 10.0031 17.4831C9.65746 17.4831 9.35617 17.4036 9.16713 17.2931L4.6089 14.631C4.19489 14.3487 3.92049 14.1605 3.72083 14.0006C3.52299 13.8422 3.45903 13.7577 3.43034 13.7074C3.40629 13.6652 3.37483 13.592 3.35542 13.3916C3.33426 13.1733 3.33334 12.8866 3.33334 12.4242V7.56732C3.33334 7.10694 3.33427 6.82203 3.35538 6.60513C3.37473 6.40643 3.40599 6.33407 3.42982 6.29244C3.45846 6.24239 3.52251 6.15789 3.72061 5.99937C3.92039 5.8395 4.19493 5.6512 4.60889 5.36892L9.1672 2.70677ZM8.33334 9.99999C8.33334 9.07022 9.07953 8.31649 10 8.31649C10.9205 8.31649 11.6667 9.07022 11.6667 9.99999C11.6667 10.9298 10.9205 11.6835 10 11.6835C9.07953 11.6835 8.33334 10.9298 8.33334 9.99999ZM10 6.63299C8.15906 6.63299 6.66667 8.14045 6.66667 9.99999C6.66667 11.8595 8.15906 13.367 10 13.367C11.841 13.367 13.3333 11.8595 13.3333 9.99999C13.3333 8.14045 11.841 6.63299 10 6.63299Z" />
    </symbol>

    <symbol id="Admin" viewBox="0 0 20 20" xmlns="http://www.w3.org/2000/svg">
        <g>
            <path fill-rule="evenodd" clip-rule="evenodd" d="M10 11.8182C7.99169 11.8182 6.36363 10.1901 6.36363 8.18181C6.36363 6.17351 7.99169 4.54545 10 4.54545C12.0083 4.54545 13.6364 6.17351 13.6364 8.18181C13.6364 10.1901 12.0083 11.8182 10 11.8182ZM10 10C11.0041 10 11.8182 9.18597 11.8182 8.18181C11.8182 7.17766 11.0041 6.36363 10 6.36363C8.99584 6.36363 8.18181 7.17766 8.18181 8.18181C8.18181 9.18597 8.99584 10 10 10Z"/>
            <path fill-rule="evenodd" clip-rule="evenodd" d="M0 2.72727C0 1.22104 1.22104 0 2.72727 0H17.2727C18.7789 0 20 1.22104 20 2.72727V13.6364C20 15.1426 18.7789 16.3636 17.2727 16.3636H16.2782C16.3343 16.6573 16.3636 16.9608 16.3636 17.2727C16.3636 17.9585 16.1209 18.5487 15.6437 18.9908C15.2012 19.4007 14.6253 19.6196 14.0609 19.7495C12.9722 20.0002 11.5243 20.0001 10.0894 20H9.91055C8.47569 20.0001 7.02779 20.0002 5.93907 19.7495C5.37468 19.6196 4.79882 19.4007 4.35631 18.9908C3.87909 18.5487 3.63636 17.9585 3.63636 17.2727C3.63636 16.9608 3.66569 16.6573 3.72179 16.3636H2.72727C1.22104 16.3636 0 15.1426 0 13.6364V2.72727ZM4.47804 14.5454C5.60369 12.8763 7.7232 11.8182 10 11.8182C12.2768 11.8182 14.3963 12.8763 15.5219 14.5454H17.2727C17.7748 14.5454 18.1818 14.1384 18.1818 13.6364V2.72727C18.1818 2.22519 17.7748 1.81818 17.2727 1.81818H2.72727C2.22519 1.81818 1.81818 2.22519 1.81818 2.72727V13.6364C1.81818 14.1384 2.22519 14.5454 2.72727 14.5454H4.47804ZM5.45454 17.2727C5.45454 15.4126 7.32738 13.6364 10 13.6364C12.6726 13.6364 14.5454 15.4126 14.5454 17.2727C14.5454 17.496 14.4829 17.5876 14.4081 17.6569C14.2986 17.7584 14.0756 17.8804 13.653 17.9777C12.7901 18.1764 11.5485 18.1818 10 18.1818C8.4515 18.1818 7.20984 18.1764 6.34703 17.9777C5.92435 17.8804 5.7014 17.7584 5.59189 17.6569C5.51708 17.5876 5.45454 17.496 5.45454 17.2727Z" />
        </g>
        <defs>
            <clipPath id="clip0_48_542">
                <rect width="20" height="20"/>
            </clipPath>
        </defs>
    </symbol>

    <symbol id="Calendar" viewBox="0 0 20 20" xmlns="http://www.w3.org/2000/svg">
        <path fill-rule="evenodd" clip-rule="evenodd" d="M6.66667 0.833332C7.1269 0.833332 7.5 1.20643 7.5 1.66667V2.5H12.5V1.66667C12.5 1.20643 12.8731 0.833332 13.3333 0.833332C13.7936 0.833332 14.1667 1.20643 14.1667 1.66667V2.50135C14.5629 2.50408 14.9092 2.51226 15.2099 2.53683C15.6783 2.5751 16.1089 2.65723 16.5133 2.86331C17.1405 3.18289 17.6504 3.69282 17.97 4.32003C18.1761 4.72448 18.2582 5.15506 18.2965 5.62348C18.3334 6.07447 18.3333 6.6281 18.3333 7.2989V10.4167C18.3333 10.8769 17.9602 11.25 17.5 11.25C17.0398 11.25 16.6667 10.8769 16.6667 10.4167V9.16666H3.33333V14.3333C3.33333 15.0471 3.33398 15.5324 3.36462 15.9075C3.39447 16.2728 3.44858 16.4596 3.51499 16.59C3.67478 16.9036 3.92974 17.1586 4.24335 17.3183C4.37368 17.3847 4.56052 17.4389 4.92586 17.4687C5.30094 17.4993 5.78618 17.5 6.5 17.5H10C10.4602 17.5 10.8333 17.8731 10.8333 18.3333C10.8333 18.7936 10.4602 19.1667 10 19.1667H6.46556C5.79476 19.1667 5.24113 19.1667 4.79014 19.1298C4.32173 19.0916 3.89114 19.0094 3.4867 18.8034C2.85949 18.4838 2.34955 17.9738 2.02998 17.3466C1.8239 16.9422 1.74176 16.5116 1.70349 16.0432C1.66665 15.5922 1.66665 15.0386 1.66666 14.3677V7.29891C1.66665 6.62811 1.66665 6.07447 1.70349 5.62348C1.74176 5.15506 1.8239 4.72448 2.02998 4.32003C2.34955 3.69282 2.85949 3.18289 3.4867 2.86331C3.89114 2.65723 4.32173 2.5751 4.79014 2.53683C5.09082 2.51226 5.43711 2.50408 5.83333 2.50135V1.66667C5.83333 1.20643 6.20643 0.833332 6.66667 0.833332ZM5.83333 4.16813C5.46206 4.17074 5.17052 4.17797 4.92586 4.19796C4.56052 4.22781 4.37368 4.28191 4.24335 4.34832C3.92974 4.50811 3.67478 4.76308 3.51499 5.07668C3.44858 5.20701 3.39447 5.39385 3.36462 5.7592C3.33398 6.13427 3.33333 6.61951 3.33333 7.33333V7.5H16.6667V7.33333C16.6667 6.61952 16.666 6.13427 16.6354 5.7592C16.6055 5.39385 16.5514 5.20701 16.485 5.07668C16.3252 4.76308 16.0703 4.50811 15.7566 4.34832C15.6263 4.28191 15.4395 4.22781 15.0741 4.19796C14.8295 4.17797 14.5379 4.17074 14.1667 4.16813V5C14.1667 5.46024 13.7936 5.83333 13.3333 5.83333C12.8731 5.83333 12.5 5.46024 12.5 5V4.16667H7.5V5C7.5 5.46024 7.1269 5.83333 6.66667 5.83333C6.20643 5.83333 5.83333 5.46024 5.83333 5V4.16813ZM18.0893 13.1607C18.4147 13.4862 18.4147 14.0138 18.0893 14.3393L14.3393 18.0893C14.0138 18.4147 13.4862 18.4147 13.1607 18.0893L11.4941 16.4226C11.1686 16.0971 11.1686 15.5695 11.4941 15.2441C11.8195 14.9186 12.3472 14.9186 12.6726 15.2441L13.75 16.3215L16.9107 13.1607C17.2362 12.8353 17.7638 12.8353 18.0893 13.1607Z" />
    </symbol>

    <symbol id="Scenarios" viewBox="0 0 20 20" xmlns="http://www.w3.org/2000/svg">
        <g>
            <path fill-rule="evenodd" clip-rule="evenodd" d="M4.97335 0.833336H15.0267C15.3922 0.833326 15.7076 0.833317 15.9687 0.851128C16.2435 0.869882 16.5184 0.911135 16.79 1.02364C17.4026 1.27737 17.8893 1.76406 18.143 2.37663C18.2555 2.64824 18.2968 2.92316 18.3155 3.19802C18.3334 3.45907 18.3333 3.77447 18.3333 4.14001V4.19333C18.3333 4.55887 18.3334 4.87428 18.3155 5.13532C18.2968 5.41018 18.2555 5.68511 18.143 5.95671C17.8893 6.56928 17.4026 7.05597 16.79 7.3097C16.5184 7.42221 16.2435 7.46346 15.9687 7.48221C15.7076 7.50002 15.3922 7.50001 15.0267 7.5L10.8333 7.5V10H12.7011C13.3719 9.99999 13.9255 9.99998 14.3765 10.0368C14.8449 10.0751 15.2755 10.1572 15.68 10.3633C16.3072 10.6829 16.8171 11.1928 17.1367 11.82C17.3428 12.2245 17.4249 12.6551 17.4632 13.1235C17.4906 13.4596 17.4976 13.8526 17.4994 14.3087C18.4707 14.6517 19.1667 15.5779 19.1667 16.6667C19.1667 18.0474 18.0474 19.1667 16.6667 19.1667C15.286 19.1667 14.1667 18.0474 14.1667 16.6667C14.1667 15.5784 14.862 14.6526 15.8326 14.3092C15.8309 13.8687 15.8245 13.5343 15.802 13.2592C15.7722 12.8939 15.7181 12.707 15.6517 12.5767C15.4919 12.2631 15.2369 12.0081 14.9233 11.8483C14.793 11.7819 14.6062 11.7278 14.2408 11.698C13.8657 11.6673 13.3805 11.6667 12.6667 11.6667H10.8333V14.3089C11.8043 14.6521 12.5 15.5782 12.5 16.6667C12.5 18.0474 11.3807 19.1667 10 19.1667C8.61929 19.1667 7.5 18.0474 7.5 16.6667C7.5 15.5782 8.19567 14.6521 9.16667 14.3089V11.6667H7.33334C6.61952 11.6667 6.13427 11.6673 5.7592 11.698C5.39385 11.7278 5.20702 11.7819 5.07668 11.8483C4.76308 12.0081 4.50811 12.2631 4.34832 12.5767C4.28192 12.707 4.22781 12.8939 4.19796 13.2592C4.17548 13.5343 4.16914 13.8687 4.16736 14.3092C5.13799 14.6526 5.83334 15.5784 5.83334 16.6667C5.83334 18.0474 4.71405 19.1667 3.33334 19.1667C1.95262 19.1667 0.833336 18.0474 0.833336 16.6667C0.833336 15.5779 1.5293 14.6517 2.5006 14.3087C2.50238 13.8526 2.50937 13.4596 2.53683 13.1235C2.5751 12.6551 2.65724 12.2245 2.86331 11.82C3.18289 11.1928 3.69283 10.6829 4.32003 10.3633C4.72448 10.1572 5.15507 10.0751 5.62348 10.0368C6.07448 9.99998 6.62812 9.99999 7.29894 10H9.16667V7.5L4.97334 7.5C4.6078 7.50001 4.2924 7.50002 4.03135 7.48221C3.75649 7.46346 3.48157 7.42221 3.20996 7.3097C2.59739 7.05597 2.11071 6.56928 1.85697 5.95671C1.74447 5.68511 1.70321 5.41018 1.68446 5.13532C1.66665 4.87427 1.66666 4.55887 1.66667 4.19332V4.14002C1.66666 3.77448 1.66665 3.45907 1.68446 3.19802C1.70321 2.92316 1.74447 2.64824 1.85697 2.37663C2.11071 1.76406 2.59739 1.27737 3.20996 1.02364C3.48157 0.911135 3.75649 0.869882 4.03135 0.851128C4.2924 0.833317 4.60781 0.833326 4.97335 0.833336ZM15 5.83334C15.3997 5.83334 15.6577 5.83289 15.8552 5.81941C16.0452 5.80645 16.1176 5.78427 16.1522 5.7699C16.3564 5.68533 16.5187 5.5231 16.6032 5.31891C16.6176 5.28423 16.6398 5.21187 16.6527 5.02187C16.6662 4.82439 16.6667 4.56636 16.6667 4.16667C16.6667 3.76698 16.6662 3.50895 16.6527 3.31147C16.6398 3.12147 16.6176 3.04911 16.6032 3.01443C16.5187 2.81024 16.3564 2.64802 16.1522 2.56344C16.1176 2.54907 16.0452 2.52689 15.8552 2.51393C15.6577 2.50046 15.3997 2.5 15 2.5H5C4.60032 2.5 4.34229 2.50046 4.1448 2.51393C3.9548 2.52689 3.88244 2.54907 3.84777 2.56344C3.64358 2.64802 3.48135 2.81024 3.39677 3.01443C3.38241 3.04911 3.36022 3.12147 3.34726 3.31147C3.33379 3.50895 3.33334 3.76698 3.33334 4.16667C3.33334 4.56636 3.33379 4.82439 3.34726 5.02187C3.36022 5.21187 3.38241 5.28423 3.39677 5.31891C3.48135 5.5231 3.64358 5.68533 3.84777 5.7699C3.88244 5.78427 3.9548 5.80645 4.1448 5.81941C4.34229 5.83289 4.60032 5.83334 5 5.83334H15ZM3.33334 15.8333C2.8731 15.8333 2.5 16.2064 2.5 16.6667C2.5 17.1269 2.8731 17.5 3.33334 17.5C3.79357 17.5 4.16667 17.1269 4.16667 16.6667C4.16667 16.2064 3.79357 15.8333 3.33334 15.8333ZM10 15.8333C9.53976 15.8333 9.16667 16.2064 9.16667 16.6667C9.16667 17.1269 9.53976 17.5 10 17.5C10.4602 17.5 10.8333 17.1269 10.8333 16.6667C10.8333 16.2064 10.4602 15.8333 10 15.8333ZM16.6667 15.8333C16.2064 15.8333 15.8333 16.2064 15.8333 16.6667C15.8333 17.1269 16.2064 17.5 16.6667 17.5C17.1269 17.5 17.5 17.1269 17.5 16.6667C17.5 16.2064 17.1269 15.8333 16.6667 15.8333Z" />
        </g>
        <defs>
            <clipPath id="clip0_48_567">
                <rect width="20" height="20" />
            </clipPath>
        </defs>
    </symbol>

    <symbol id="News" viewBox="0 0 20 20"  xmlns="http://www.w3.org/2000/svg">
        <path fill-rule="evenodd" clip-rule="evenodd" d="M1.66667 3.33333C1.66667 2.8731 2.03976 2.5 2.5 2.5H17.5C17.9602 2.5 18.3333 2.8731 18.3333 3.33333C18.3333 3.79357 17.9602 4.16667 17.5 4.16667H2.5C2.03976 4.16667 1.66667 3.79357 1.66667 3.33333ZM3.80675 5.83333C3.81561 5.83333 3.82447 5.83333 3.83334 5.83333H7.83334C7.8422 5.83333 7.85107 5.83333 7.85992 5.83333C8.07024 5.83331 8.27506 5.83328 8.44853 5.84745C8.63902 5.86302 8.8638 5.89974 9.08999 6.01499C9.40359 6.17478 9.65856 6.42975 9.81835 6.74335C9.93359 6.96954 9.97032 7.19431 9.98588 7.38481C10.0001 7.55828 10 7.76311 10 7.97343V12.0266C10 12.2369 10.0001 12.4417 9.98588 12.6152C9.97032 12.8057 9.93359 13.0305 9.81835 13.2567C9.65856 13.5703 9.40359 13.8252 9.08999 13.985C8.8638 14.1003 8.63902 14.137 8.44853 14.1525C8.27506 14.1667 8.07023 14.1667 7.8599 14.1667H3.80677C3.59644 14.1667 3.39161 14.1667 3.21814 14.1525C3.02765 14.137 2.80287 14.1003 2.57668 13.985C2.26308 13.8252 2.00811 13.5703 1.84832 13.2567C1.73308 13.0305 1.69635 12.8057 1.68079 12.6152C1.66662 12.4417 1.66664 12.2369 1.66667 12.0266L1.66667 8C1.66667 7.99113 1.66667 7.98227 1.66667 7.97342C1.66664 7.7631 1.66662 7.55827 1.68079 7.38481C1.69635 7.19431 1.73308 6.96954 1.84832 6.74335C2.00811 6.42975 2.26308 6.17478 2.57668 6.01499C2.80287 5.89974 3.02765 5.86302 3.21814 5.84745C3.39161 5.83328 3.59643 5.83331 3.80675 5.83333ZM3.34288 7.50954C3.34256 7.513 3.34224 7.51666 3.34192 7.52053C3.33398 7.61768 3.33334 7.75289 3.33334 8V12C3.33334 12.2471 3.33398 12.3823 3.34192 12.4795C3.34224 12.4833 3.34256 12.487 3.34288 12.4905C3.34633 12.4908 3.34999 12.4911 3.35386 12.4914C3.45102 12.4994 3.58623 12.5 3.83334 12.5H7.83334C8.08044 12.5 8.21565 12.4994 8.31281 12.4914C8.31668 12.4911 8.32034 12.4908 8.3238 12.4905C8.32411 12.487 8.32443 12.4833 8.32475 12.4795C8.33269 12.3823 8.33333 12.2471 8.33333 12V8C8.33333 7.75289 8.33269 7.61768 8.32475 7.52053C8.32443 7.51666 8.32411 7.513 8.3238 7.50954C8.32034 7.50922 8.31668 7.5089 8.31281 7.50859C8.21565 7.50065 8.08044 7.5 7.83334 7.5H3.83334C3.58623 7.5 3.45102 7.50065 3.35386 7.50859C3.34999 7.5089 3.34633 7.50922 3.34288 7.50954ZM11.6667 7.70833C11.6667 7.2481 12.0398 6.875 12.5 6.875H17.5C17.9602 6.875 18.3333 7.2481 18.3333 7.70833C18.3333 8.16857 17.9602 8.54167 17.5 8.54167H12.5C12.0398 8.54167 11.6667 8.16857 11.6667 7.70833ZM11.6667 12.2917C11.6667 11.8314 12.0398 11.4583 12.5 11.4583H17.5C17.9602 11.4583 18.3333 11.8314 18.3333 12.2917C18.3333 12.7519 17.9602 13.125 17.5 13.125H12.5C12.0398 13.125 11.6667 12.7519 11.6667 12.2917ZM1.66667 16.6667C1.66667 16.2064 2.03976 15.8333 2.5 15.8333H17.5C17.9602 15.8333 18.3333 16.2064 18.3333 16.6667C18.3333 17.1269 17.9602 17.5 17.5 17.5H2.5C2.03976 17.5 1.66667 17.1269 1.66667 16.6667Z" />
    </symbol>

    <symbol id="Events" viewBox="0 0 20 20" xmlns="http://www.w3.org/2000/svg">
        <path fill-rule="evenodd" clip-rule="evenodd" d="M6.66667 0.833328C7.1269 0.833328 7.5 1.20642 7.5 1.66666V2.49999H12.5V1.66666C12.5 1.20642 12.8731 0.833328 13.3333 0.833328C13.7936 0.833328 14.1667 1.20642 14.1667 1.66666V2.50135C14.5629 2.50407 14.9092 2.51226 15.2099 2.53682C15.6783 2.57509 16.1089 2.65723 16.5133 2.86331C17.1405 3.18288 17.6504 3.69282 17.97 4.32003C18.1761 4.72447 18.2582 5.15506 18.2965 5.62347C18.3199 5.91022 18.3285 6.23846 18.3316 6.61192C18.3327 6.63002 18.3333 6.64827 18.3333 6.66666C18.3333 6.68103 18.333 6.69531 18.3322 6.70949C18.3333 6.89503 18.3333 7.09135 18.3333 7.29889V14.3678C18.3333 15.0386 18.3334 15.5922 18.2965 16.0432C18.2582 16.5116 18.1761 16.9422 17.97 17.3466C17.6504 17.9738 17.1405 18.4838 16.5133 18.8033C16.1089 19.0094 15.6783 19.0916 15.2099 19.1298C14.7589 19.1667 14.2052 19.1667 13.5344 19.1667H6.46556C5.79476 19.1667 5.24113 19.1667 4.79014 19.1298C4.32173 19.0916 3.89114 19.0094 3.4867 18.8033C2.85949 18.4838 2.34955 17.9738 2.02998 17.3466C1.8239 16.9422 1.74176 16.5116 1.70349 16.0432C1.66665 15.5922 1.66665 15.0386 1.66666 14.3677V7.29891C1.66666 7.09137 1.66666 6.89504 1.66775 6.70949C1.66703 6.69531 1.66666 6.68103 1.66666 6.66666C1.66666 6.64827 1.66726 6.63002 1.66843 6.61192C1.67154 6.23846 1.68006 5.91022 1.70349 5.62347C1.74176 5.15506 1.8239 4.72447 2.02998 4.32003C2.34955 3.69282 2.85949 3.18288 3.4867 2.86331C3.89114 2.65723 4.32173 2.57509 4.79014 2.53682C5.09082 2.51226 5.43711 2.50407 5.83333 2.50135V1.66666C5.83333 1.20642 6.20643 0.833328 6.66667 0.833328ZM5.83333 4.16813C5.46206 4.17074 5.17052 4.17796 4.92586 4.19795C4.56052 4.2278 4.37368 4.28191 4.24335 4.34832C3.92974 4.50811 3.67478 4.76307 3.51499 5.07668C3.44858 5.20701 3.39447 5.39385 3.36462 5.75919C3.36264 5.78343 3.36079 5.80813 3.35905 5.83333H16.6409C16.6392 5.80813 16.6374 5.78343 16.6354 5.75919C16.6055 5.39385 16.5514 5.20701 16.485 5.07668C16.3252 4.76307 16.0703 4.50811 15.7566 4.34832C15.6263 4.28191 15.4395 4.2278 15.0741 4.19795C14.8295 4.17796 14.5379 4.17074 14.1667 4.16813C14.1659 4.62769 13.7931 4.99999 13.3333 4.99999C12.8731 4.99999 12.5 4.6269 12.5 4.16666H7.5C7.5 4.6269 7.1269 4.99999 6.66667 4.99999C6.20692 4.99999 5.83413 4.62769 5.83333 4.16813ZM16.6667 7.49999H3.33333V14.3333C3.33333 15.0471 3.33398 15.5324 3.36462 15.9075C3.39447 16.2728 3.44858 16.4596 3.51499 16.59C3.67478 16.9036 3.92974 17.1586 4.24335 17.3183C4.37368 17.3847 4.56052 17.4389 4.92586 17.4687C5.30094 17.4993 5.78618 17.5 6.5 17.5H13.5C14.2138 17.5 14.6991 17.4993 15.0741 17.4687C15.4395 17.4389 15.6263 17.3847 15.7566 17.3183C16.0703 17.1585 16.3252 16.9036 16.485 16.59C16.5514 16.4596 16.6055 16.2728 16.6354 15.9075C16.666 15.5324 16.6667 15.0471 16.6667 14.3333V7.49999ZM9.99725 9.189C9.07525 8.60203 7.84187 8.54492 6.85241 9.36685C5.67533 10.3446 5.492 12.0195 6.43713 13.2019C6.97157 13.8705 8.3603 15.0998 9.02233 15.676C9.02653 15.6797 9.03081 15.6834 9.03517 15.6872C9.0979 15.7418 9.1766 15.8104 9.25216 15.8663C9.34315 15.9336 9.47252 16.0162 9.64449 16.0669C9.87377 16.1344 10.1217 16.1344 10.3509 16.0669C10.5229 16.0162 10.6523 15.9336 10.7433 15.8663C10.8188 15.8104 10.8975 15.7418 10.9603 15.6872C10.9646 15.6834 10.9689 15.6797 10.9731 15.676C11.6351 15.0998 13.0239 13.8705 13.5583 13.2019C14.4958 12.0291 14.3459 10.3388 13.1343 9.3597C12.1396 8.55596 10.9175 8.60255 9.99725 9.189ZM9.37206 10.8259C8.95336 10.35 8.34983 10.2897 7.91738 10.6489C7.42443 11.0584 7.37265 11.703 7.739 12.1613C8.13436 12.6559 9.27367 13.6817 9.99771 14.3151C10.7218 13.6817 11.8611 12.6559 12.2564 12.1613C12.6304 11.6934 12.5739 11.0496 12.0868 10.656C11.6313 10.288 11.0359 10.357 10.6234 10.8259C10.4652 11.0058 10.2372 11.1088 9.99772 11.1088C9.7582 11.1088 9.53027 11.0058 9.37206 10.8259Z" />
    </symbol>

    <symbol id="Offers" viewBox="0 0 20 20" xmlns="http://www.w3.org/2000/svg">
        <g>
            <path fill-rule="evenodd" clip-rule="evenodd" d="M7.38821 1.79525C8.89322 0.512688 11.1068 0.512688 12.6118 1.79525L12.0768 2.42305L12.6118 1.79525C12.9898 2.11737 13.4598 2.31204 13.9548 2.35155C15.9259 2.50884 17.4912 4.07407 17.6484 6.04518C17.688 6.54023 17.8826 7.01021 18.2047 7.3882C19.4873 8.89321 19.4873 11.1068 18.2047 12.6118C17.8826 12.9898 17.688 13.4598 17.6484 13.9548C17.4912 15.9259 15.9259 17.4911 13.9548 17.6484C13.4598 17.6879 12.9898 17.8826 12.6118 18.2047C11.1068 19.4873 8.89322 19.4873 7.38821 18.2047C7.01022 17.8826 6.54024 17.6879 6.04519 17.6484C4.07407 17.4911 2.50885 15.9259 2.35156 13.9548C2.31205 13.4598 2.11738 12.9898 1.79526 12.6118L2.42305 12.0768L1.79526 12.6118C0.512696 11.1068 0.512696 8.89321 1.79526 7.3882C2.11738 7.01021 2.31205 6.54023 2.35156 6.04518C2.50885 4.07407 4.07407 2.50884 6.04519 2.35155C6.54024 2.31204 7.01022 2.11737 7.38821 1.79525ZM11.5308 3.06377C10.6487 2.31207 9.35132 2.31207 8.46924 3.06377C7.82431 3.61338 7.02243 3.94553 6.17777 4.01293C5.0225 4.10512 4.10513 5.0225 4.01294 6.17776C3.94554 7.02242 3.61339 7.8243 3.06378 8.46923C2.31208 9.35131 2.31208 10.6487 3.06378 11.5308L2.42952 12.0713L3.06378 11.5308C3.61339 12.1757 3.94554 12.9776 4.01294 13.8222C4.10513 14.9775 5.0225 15.8949 6.17777 15.9871C7.02243 16.0545 7.82431 16.3866 8.46924 16.9362C9.35132 17.6879 10.6487 17.6879 11.5308 16.9362C12.1757 16.3866 12.9776 16.0545 13.8222 15.9871C14.9775 15.8949 15.8949 14.9775 15.9871 13.8222C16.0545 12.9776 16.3866 12.1757 16.9362 11.5308C17.6879 10.6487 17.6879 9.35131 16.9362 8.46923C16.3866 7.8243 16.0545 7.02242 15.9871 6.17776C15.8949 5.0225 14.9775 4.10512 13.8222 4.01293C12.9776 3.94553 12.1757 3.61338 11.5308 3.06377ZM12.7441 6.07741C13.0695 5.75197 13.5972 5.75197 13.9226 6.07741C14.248 6.40284 14.248 6.93048 13.9226 7.25592L7.25592 13.9226C6.93049 14.248 6.40285 14.248 6.07741 13.9226C5.75198 13.5971 5.75198 13.0695 6.07741 12.7441L12.7441 6.07741ZM6.25 7.49999C6.25 6.80964 6.80965 6.24999 7.5 6.24999C8.19036 6.24999 8.75 6.80964 8.75 7.49999C8.75 8.19035 8.19036 8.74999 7.5 8.74999C6.80965 8.74999 6.25 8.19035 6.25 7.49999ZM11.25 12.5C11.25 11.8096 11.8096 11.25 12.5 11.25C13.1904 11.25 13.75 11.8096 13.75 12.5C13.75 13.1903 13.1904 13.75 12.5 13.75C11.8096 13.75 11.25 13.1903 11.25 12.5Z"/>
        </g>
        <defs>
            <clipPath id="clip0_48_587">
                <rect width="20" height="20" />
            </clipPath>
        </defs>
    </symbol>

    <symbol id="Blogs" viewBox="0 0 20 20" xmlns="http://www.w3.org/2000/svg">
        <path fill-rule="evenodd" clip-rule="evenodd" d="M15.0268 2.51995C14.7907 2.50066 14.4805 2.50001 14 2.50001H7.33333C6.61952 2.50001 6.13427 2.50066 5.7592 2.5313C5.39385 2.56115 5.20702 2.61526 5.07668 2.68167C4.76308 2.84146 4.50811 3.09642 4.34832 3.41003C4.28192 3.54036 4.22781 3.7272 4.19796 4.09254C4.16732 4.46762 4.16667 4.95286 4.16667 5.66668V12.946C4.65696 12.6623 5.22619 12.5 5.83333 12.5H15.8333V4.33334C15.8333 3.85288 15.8327 3.54266 15.8134 3.30654C15.7949 3.08016 15.7635 2.99622 15.7425 2.95502C15.6626 2.79822 15.5351 2.67073 15.3783 2.59084C15.3371 2.56985 15.2532 2.53845 15.0268 2.51995ZM17.5 4.30121C17.5 3.86192 17.5 3.48296 17.4745 3.17082C17.4476 2.84137 17.3882 2.51368 17.2275 2.19837C16.9878 1.72796 16.6054 1.34551 16.135 1.10583C15.8197 0.945167 15.492 0.885737 15.1625 0.85882C14.8504 0.833316 14.4714 0.833329 14.0321 0.833344L7.29892 0.833345C6.62811 0.833334 6.07448 0.833325 5.62348 0.870173C5.15507 0.908444 4.72448 0.990581 4.32003 1.19666C3.69283 1.51623 3.18289 2.02617 2.86331 2.65338C2.65724 3.05782 2.5751 3.48841 2.53683 3.95682C2.49998 4.40782 2.49999 4.96145 2.5 5.63226V14.3678C2.49999 14.8163 2.49999 15.2125 2.511 15.5606C2.50371 15.6505 2.5 15.7415 2.5 15.8333C2.5 15.9237 2.51439 16.0108 2.54102 16.0923C2.58101 16.5417 2.66446 16.9564 2.86331 17.3466C3.18289 17.9739 3.69283 18.4838 4.32003 18.8034C4.72448 19.0094 5.15506 19.0916 5.62348 19.1299C6.07447 19.1667 6.6281 19.1667 7.2989 19.1667H14.0321C14.4714 19.1667 14.8504 19.1667 15.1625 19.1412C15.492 19.1143 15.8197 19.0549 16.135 18.8942C16.6054 18.6545 16.9878 18.2721 17.2275 17.8017C17.3882 17.4863 17.4476 17.1587 17.4745 16.8292C17.4973 16.5511 17.4997 16.2199 17.5 15.8402C17.5 15.8379 17.5 15.8356 17.5 15.8333V15.7552C17.5 15.7365 17.5 15.7177 17.5 15.6988V4.30121ZM4.18066 15.6164C4.18497 15.7209 4.1906 15.8174 4.19796 15.9075C4.22781 16.2728 4.28192 16.4597 4.34832 16.59C4.50811 16.9036 4.76308 17.1586 5.07668 17.3184C5.20702 17.3848 5.39385 17.4389 5.7592 17.4687C6.13427 17.4994 6.61952 17.5 7.33333 17.5H14C14.4805 17.5 14.7907 17.4994 15.0268 17.4801C15.2532 17.4616 15.3371 17.4302 15.3783 17.4092C15.5351 17.3293 15.6626 17.2018 15.7425 17.045C15.7635 17.0038 15.7949 16.9199 15.8134 16.6935C15.8327 16.4574 15.8333 16.1471 15.8333 15.6667V14.1667H5.83333C4.98639 14.1667 4.28699 14.7984 4.18066 15.6164Z" />
    </symbol>

    <symbol id="Notifications" viewBox="0 0 20 20"  xmlns="http://www.w3.org/2000/svg">
        <path fill-rule="evenodd" clip-rule="evenodd" d="M5.77835 2.53325C6.90207 1.44212 8.42108 0.833313 9.99999 0.833313C11.5789 0.833313 13.0979 1.44212 14.2216 2.53325C15.3462 3.6252 15.9826 5.11151 15.9826 6.66665C15.9826 9.08887 16.6093 10.6948 17.2673 11.7215L17.2776 11.7376C17.5841 12.216 17.8265 12.5943 17.99 12.8696C18.0719 13.0076 18.1467 13.1408 18.2021 13.2594C18.2298 13.3186 18.261 13.3915 18.2854 13.4712C18.3056 13.537 18.3447 13.6797 18.3301 13.8539C18.3203 13.9697 18.2959 14.1676 18.1795 14.371C18.0642 14.5725 17.9074 14.6941 17.8147 14.7608C17.6067 14.9106 17.3688 14.9448 17.2879 14.9564L17.2842 14.9569C17.1603 14.9747 17.0188 14.9837 16.8745 14.9891C16.5878 15 16.1903 15 15.6941 15H4.30591C3.80967 15 3.41217 15 3.12544 14.9891C2.98116 14.9837 2.83967 14.9747 2.71575 14.9569L2.71204 14.9564C2.63119 14.9448 2.39327 14.9106 2.18528 14.7608C2.0926 14.6941 1.9358 14.5725 1.82051 14.371C1.70411 14.1676 1.67966 13.9697 1.6699 13.8539C1.65523 13.6797 1.69439 13.537 1.71457 13.4712C1.739 13.3915 1.77017 13.3186 1.79784 13.2594C1.8533 13.1408 1.92809 13.0076 2.00997 12.8696C2.17345 12.5942 2.41591 12.2159 2.72253 11.7374L2.7327 11.7215C3.39063 10.6948 4.01734 9.08887 4.01734 6.66665C4.01734 5.11151 4.6538 3.6252 5.77835 2.53325ZM9.99999 2.49998C8.84754 2.49998 7.74705 2.94474 6.9394 3.72897C6.13259 4.51239 5.68401 5.56962 5.68401 6.66665C5.68401 9.39473 4.97271 11.315 4.13596 12.6208C3.95617 12.9013 3.80567 13.1363 3.68224 13.3322C3.86449 13.3333 4.07765 13.3333 4.32618 13.3333H15.6738C15.9223 13.3333 16.1355 13.3333 16.3177 13.3322C16.1943 13.1363 16.0438 12.9013 15.864 12.6208C15.0273 11.315 14.316 9.39473 14.316 6.66665C14.316 5.56962 13.8674 4.51239 13.0606 3.72897C12.2529 2.94474 11.1524 2.49998 9.99999 2.49998ZM7.09654 16.9577C7.39604 16.6082 7.92212 16.5677 8.27158 16.8672C8.72936 17.2596 9.33304 17.5 9.99999 17.5C10.6669 17.5 11.2706 17.2596 11.7284 16.8672C12.0779 16.5677 12.6039 16.6082 12.9034 16.9577C13.2029 17.3072 13.1624 17.8332 12.813 18.1327C12.0604 18.7777 11.0743 19.1666 9.99999 19.1666C8.9257 19.1666 7.93954 18.7777 7.18701 18.1327C6.83755 17.8332 6.79705 17.3072 7.09654 16.9577Z"/>
    </symbol>

    <symbol id="plusCircle" viewBox="0 0 20 20" xmlns="http://www.w3.org/2000/svg">
        <g>
            <path fill-rule="evenodd" clip-rule="evenodd" d="M9.99998 2.5C5.85784 2.5 2.49998 5.85786 2.49998 10C2.49998 14.1421 5.85784 17.5 9.99998 17.5C14.1421 17.5 17.5 14.1421 17.5 10C17.5 5.85786 14.1421 2.5 9.99998 2.5ZM0.833313 10C0.833313 4.93739 4.93737 0.833334 9.99998 0.833334C15.0626 0.833334 19.1666 4.93739 19.1666 10C19.1666 15.0626 15.0626 19.1667 9.99998 19.1667C4.93737 19.1667 0.833313 15.0626 0.833313 10ZM9.99998 5.83333C10.4602 5.83333 10.8333 6.20643 10.8333 6.66667V9.16667H13.3333C13.7935 9.16667 14.1666 9.53976 14.1666 10C14.1666 10.4602 13.7935 10.8333 13.3333 10.8333H10.8333V13.3333C10.8333 13.7936 10.4602 14.1667 9.99998 14.1667C9.53974 14.1667 9.16665 13.7936 9.16665 13.3333V10.8333H6.66665C6.20641 10.8333 5.83331 10.4602 5.83331 10C5.83331 9.53976 6.20641 9.16667 6.66665 9.16667H9.16665V6.66667C9.16665 6.20643 9.53974 5.83333 9.99998 5.83333Z"/>
        </g>
        <defs>
            <clipPath id="clip0_76_67">
                <rect width="20" height="20"/>
            </clipPath>
        </defs>
    </symbol>

    <symbol id="icoDate" viewBox="0 0 16 16" xmlns="http://www.w3.org/2000/svg">
        <path fill-rule="evenodd" clip-rule="evenodd" d="M5.33333 0.666664C5.70152 0.666664 6 0.965141 6 1.33333V2H10V1.33333C10 0.965141 10.2985 0.666664 10.6667 0.666664C11.0349 0.666664 11.3333 0.965141 11.3333 1.33333V2.00108C11.6503 2.00326 11.9273 2.00981 12.1679 2.02946C12.5426 2.06008 12.8871 2.12579 13.2106 2.29065C13.7124 2.54631 14.1203 2.95426 14.376 3.45602C14.5409 3.77958 14.6066 4.12405 14.6372 4.49878C14.6667 4.85957 14.6667 5.30247 14.6667 5.83911V11.4942C14.6667 12.0309 14.6667 12.4738 14.6372 12.8345C14.6066 13.2093 14.5409 13.5537 14.376 13.8773C14.1203 14.3791 13.7124 14.787 13.2106 15.0427C12.8871 15.2075 12.5426 15.2733 12.1679 15.3039C11.8071 15.3333 11.3642 15.3333 10.8275 15.3333H5.17245C4.63581 15.3333 4.1929 15.3333 3.83211 15.3039C3.45738 15.2733 3.11291 15.2075 2.78935 15.0427C2.28759 14.787 1.87964 14.3791 1.62398 13.8773C1.45912 13.5537 1.39341 13.2093 1.36279 12.8345C1.33331 12.4738 1.33332 12.0308 1.33333 11.4942V5.83913C1.33332 5.30248 1.33331 4.85958 1.36279 4.49878C1.39341 4.12405 1.45912 3.77958 1.62398 3.45602C1.87964 2.95426 2.28759 2.54631 2.78935 2.29065C3.11291 2.12579 3.45738 2.06008 3.83211 2.02946C4.07265 2.00981 4.34969 2.00326 4.66666 2.00108V1.33333C4.66666 0.965141 4.96514 0.666664 5.33333 0.666664ZM4.66666 3.33451C4.36964 3.33659 4.13642 3.34237 3.94069 3.35836C3.64841 3.38224 3.49894 3.42553 3.39468 3.47866C3.14379 3.60649 2.93982 3.81046 2.81199 4.06134C2.75886 4.16561 2.71558 4.31508 2.6917 4.60736C2.66718 4.90741 2.66666 5.29561 2.66666 5.86666V6H13.3333V5.86666C13.3333 5.29561 13.3328 4.90742 13.3083 4.60736C13.2844 4.31508 13.2411 4.16561 13.188 4.06134C13.0602 3.81046 12.8562 3.60649 12.6053 3.47866C12.501 3.42553 12.3516 3.38224 12.0593 3.35836C11.8636 3.34237 11.6303 3.33659 11.3333 3.33451V4C11.3333 4.36819 11.0349 4.66666 10.6667 4.66666C10.2985 4.66666 10 4.36819 10 4V3.33333H6V4C6 4.36819 5.70152 4.66666 5.33333 4.66666C4.96514 4.66666 4.66666 4.36819 4.66666 4V3.33451ZM13.3333 7.33333H2.66666V11.4667C2.66666 12.0377 2.66718 12.4259 2.6917 12.726C2.71558 13.0182 2.75886 13.1677 2.81199 13.272C2.93982 13.5229 3.14379 13.7268 3.39468 13.8547C3.49894 13.9078 3.64841 13.9511 3.94069 13.975C4.24075 13.9995 4.62894 14 5.2 14H10.8C11.371 14 11.7592 13.9995 12.0593 13.975C12.3516 13.9511 12.501 13.9078 12.6053 13.8547C12.8562 13.7268 13.0602 13.5229 13.188 13.272C13.2411 13.1677 13.2844 13.0182 13.3083 12.726C13.3328 12.4259 13.3333 12.0377 13.3333 11.4667V7.33333Z" fill="white"/>
    </symbol>

    <symbol id="icoArrow" viewBox="0 0 16 16" fill="none" xmlns="http://www.w3.org/2000/svg">
        <path fill-rule="evenodd" clip-rule="evenodd" d="M3.52864 5.52859C3.78899 5.26824 4.2111 5.26824 4.47145 5.52859L8.00004 9.05719L11.5286 5.52859C11.789 5.26824 12.2111 5.26824 12.4714 5.52859C12.7318 5.78894 12.7318 6.21105 12.4714 6.4714L8.47145 10.4714C8.2111 10.7317 7.78899 10.7317 7.52864 10.4714L3.52864 6.4714C3.26829 6.21105 3.26829 5.78894 3.52864 5.52859Z" fill="white"/>
    </symbol>

    <symbol id="icoCategory" viewBox="0 0 16 16" fill="none" xmlns="http://www.w3.org/2000/svg">
        <path fill-rule="evenodd" clip-rule="evenodd" d="M6.93668 2.01842C6.8778 2.00428 6.80753 2 6.44967 2H3.46666C3.08229 2 2.83411 2.00052 2.64522 2.01595C2.46411 2.03075 2.39697 2.05586 2.364 2.07266C2.23856 2.13657 2.13658 2.23856 2.07266 2.364C2.05586 2.39697 2.03075 2.46411 2.01595 2.64522C2.00052 2.83411 2 3.08229 2 3.46666L2 6.44967C2 6.80753 2.00428 6.8778 2.01842 6.93668C2.03475 7.0047 2.06168 7.06973 2.09824 7.12938C2.12988 7.18101 2.17653 7.23372 2.42957 7.48676L7.54199 12.5992C7.94579 13.003 8.22065 13.2771 8.45016 13.4719C8.67372 13.6617 8.81001 13.7368 8.92131 13.773C9.1891 13.86 9.47756 13.86 9.74535 13.773C9.85665 13.7368 9.99294 13.6617 10.2165 13.4719C10.446 13.2771 10.7209 13.003 11.1247 12.5992L12.5992 11.1247C13.003 10.7209 13.2771 10.446 13.4719 10.2165C13.6617 9.99294 13.7368 9.85665 13.773 9.74535C13.86 9.47756 13.86 9.1891 13.773 8.92131C13.7368 8.81001 13.6617 8.67372 13.4719 8.45016C13.2771 8.22065 13.003 7.94579 12.5992 7.54199L7.48676 2.42957C7.23372 2.17653 7.18101 2.12987 7.12938 2.09824C7.06973 2.06168 7.0047 2.03475 6.93668 2.01842ZM6.50521 0.666629C6.77647 0.666377 7.01564 0.666154 7.24794 0.721923C7.45201 0.770917 7.6471 0.851726 7.82604 0.961383C8.02974 1.08621 8.19869 1.25548 8.39033 1.44747C8.4033 1.46047 8.41637 1.47357 8.42957 1.48676L13.5615 6.61866C13.9409 6.99812 14.2541 7.31129 14.4884 7.58726C14.7317 7.87388 14.9288 8.16392 15.0411 8.50928C15.2151 9.04487 15.2151 9.62179 15.0411 10.1574C14.9288 10.5027 14.7317 10.7928 14.4884 11.0794C14.2541 11.3554 13.9409 11.6686 13.5615 12.048L12.048 13.5615C11.6685 13.9409 11.3554 14.2541 11.0794 14.4884C10.7928 14.7317 10.5027 14.9288 10.1574 15.0411C9.62179 15.2151 9.04487 15.2151 8.50928 15.0411C8.16392 14.9288 7.87388 14.7317 7.58726 14.4884C7.31129 14.2541 6.9981 13.9409 6.61863 13.5614L1.48676 8.42957C1.47357 8.41638 1.46047 8.4033 1.44747 8.39033C1.25548 8.19869 1.08621 8.02974 0.961383 7.82604C0.851726 7.6471 0.770917 7.45201 0.721923 7.24794C0.666154 7.01564 0.666377 6.77647 0.666629 6.50521C0.666646 6.48685 0.666663 6.46834 0.666663 6.44967L0.666663 3.44097C0.666651 3.08954 0.666641 2.78636 0.687043 2.53664C0.708577 2.27308 0.756121 2.01094 0.884651 1.75868C1.0764 1.38236 1.38236 1.0764 1.75868 0.88465C2.01094 0.756121 2.27308 0.708577 2.53665 0.687043C2.78636 0.666641 3.08954 0.666651 3.44097 0.666663L6.44967 0.666663C6.46834 0.666663 6.48685 0.666646 6.50521 0.666629ZM4.33333 5.33333C4.33333 4.78104 4.78105 4.33333 5.33333 4.33333C5.88562 4.33333 6.33333 4.78104 6.33333 5.33333C6.33333 5.88561 5.88562 6.33333 5.33333 6.33333C4.78105 6.33333 4.33333 5.88561 4.33333 5.33333Z" fill="white"/>
    </symbol>

    <symbol id="icoStatus" viewBox="0 0 16 16" fill="none" xmlns="http://www.w3.org/2000/svg">
        <path fill-rule="evenodd" clip-rule="evenodd" d="M7.48282 2.03684C7.34722 2.00429 7.19541 2 6.6745 2L3.99999 2C3.6318 2 3.33332 1.70152 3.33332 1.33333C3.33332 0.965145 3.6318 0.666668 3.99999 0.666668L6.6745 0.666668C6.69744 0.666668 6.72008 0.666657 6.74242 0.666647C7.16575 0.666445 7.48562 0.666293 7.79408 0.740348C8.06618 0.805673 8.3263 0.913417 8.56489 1.05963C8.83537 1.22538 9.06144 1.45166 9.36064 1.75115C9.37643 1.76695 9.39243 1.78297 9.40865 1.79919L14.4714 6.86193C14.7317 7.12228 14.7317 7.54439 14.4714 7.80474C14.211 8.06509 13.7889 8.06509 13.5286 7.80474L8.46584 2.742C8.0975 2.37366 7.98713 2.26935 7.86822 2.19648C7.74893 2.12338 7.61887 2.0695 7.48282 2.03684ZM6.60333 4.35175C6.54445 4.33762 6.47418 4.33333 6.11633 4.33333H4.13332C3.74895 4.33333 3.50077 4.33385 3.31188 4.34929C3.13077 4.36408 3.06362 4.3892 3.03066 4.406C2.90522 4.46991 2.80323 4.5719 2.73932 4.69734C2.72252 4.7303 2.6974 4.79745 2.6826 4.97856C2.66717 5.16745 2.66665 5.41563 2.66665 5.8L2.66665 7.11635C2.66665 7.4742 2.67094 7.54447 2.68507 7.60335C2.7014 7.67137 2.72834 7.7364 2.76489 7.79605C2.79653 7.84768 2.84319 7.9004 3.09623 8.15344L8.29623 13.3534C8.56802 13.6252 8.74388 13.8004 8.88836 13.923C9.02688 14.0406 9.09212 14.0703 9.12731 14.0818C9.2612 14.1253 9.40544 14.1253 9.53933 14.0818C9.57452 14.0703 9.63976 14.0406 9.77828 13.923C9.92276 13.8004 10.0986 13.6252 10.3704 13.3534L12.0201 11.7038C12.2919 11.432 12.467 11.2561 12.5897 11.1116C12.7073 10.9731 12.737 10.9079 12.7484 10.8727C12.7919 10.7388 12.7919 10.5946 12.7484 10.4607C12.737 10.4255 12.7073 10.3602 12.5897 10.2217C12.467 10.0772 12.2919 9.90137 12.0201 9.62958L7.15342 4.76291C6.90038 4.50987 6.84766 4.46321 6.79603 4.43157C6.73639 4.39502 6.67136 4.36809 6.60333 4.35175ZM6.17187 2.99997C6.44313 2.99971 6.6823 2.99949 6.91459 3.05526C7.11867 3.10426 7.31376 3.18506 7.4927 3.29472C7.69639 3.41954 7.86535 3.58881 8.05698 3.7808C8.06995 3.7938 8.08303 3.8069 8.09623 3.8201L12.981 8.70491C13.2296 8.95341 13.444 9.16779 13.6061 9.3588C13.7773 9.5604 13.929 9.77938 14.0165 10.0486C14.147 10.4503 14.147 10.883 14.0165 11.2847C13.929 11.554 13.7773 11.7729 13.6061 11.9745C13.444 12.1655 13.2296 12.3799 12.9811 12.6284L11.295 14.3144C11.0466 14.5629 10.8322 14.7773 10.6412 14.9395C10.4396 15.1106 10.2206 15.2623 9.95135 15.3498C9.54967 15.4803 9.11697 15.4803 8.71529 15.3498C8.44603 15.2623 8.22705 15.1106 8.02545 14.9395C7.83446 14.7773 7.6201 14.5629 7.37161 14.3144L2.15342 9.09624C2.14022 9.08305 2.12712 9.06997 2.11412 9.057C1.92213 8.86536 1.75286 8.69641 1.62804 8.49271C1.51838 8.31377 1.43757 8.11868 1.38858 7.91461C1.33281 7.68231 1.33303 7.44315 1.33329 7.17188C1.3333 7.15352 1.33332 7.13501 1.33332 7.11635L1.33332 5.77431C1.33331 5.42287 1.3333 5.1197 1.3537 4.86998C1.37523 4.60642 1.42278 4.34427 1.55131 4.09202C1.74305 3.7157 2.04901 3.40974 2.42534 3.21799C2.67759 3.08946 2.93974 3.04192 3.2033 3.02038C3.45302 2.99998 3.75619 2.99999 4.10762 3L6.11633 3C6.135 3 6.15351 2.99998 6.17187 2.99997Z" fill="white"/>
    </symbol>

    <symbol id="icoCheck" viewBox="0 0 20 20" fill="none" xmlns="http://www.w3.org/2000/svg">
        <path fill-rule="evenodd" clip-rule="evenodd" d="M17.2559 4.41073C17.5814 4.73617 17.5814 5.26381 17.2559 5.58925L8.08926 14.7559C7.76382 15.0814 7.23618 15.0814 6.91074 14.7559L2.74408 10.5892C2.41864 10.2638 2.41864 9.73617 2.74408 9.41073C3.06951 9.0853 3.59715 9.0853 3.92259 9.41073L7.5 12.9881L16.0774 4.41073C16.4028 4.0853 16.9305 4.0853 17.2559 4.41073Z" fill="black"/>
    </symbol>

    <symbol id="icoList" viewBox="0 0 20 20" fill="none" xmlns="http://www.w3.org/2000/svg">
        <path fill-rule="evenodd" clip-rule="evenodd" d="M6.46561 1.66666H13.5344C14.2052 1.66665 14.7589 1.66665 15.2099 1.70349C15.6783 1.74176 16.1089 1.8239 16.5133 2.02998C17.1405 2.34955 17.6505 2.85949 17.97 3.4867C18.1761 3.89114 18.2583 4.32173 18.2965 4.79014C18.3334 5.24113 18.3334 5.79476 18.3334 6.46556V13.5344C18.3334 14.2052 18.3334 14.7589 18.2965 15.2099C18.2583 15.6783 18.1761 16.1089 17.97 16.5133C17.6505 17.1405 17.1405 17.6504 16.5133 17.97C16.1089 18.1761 15.6783 18.2582 15.2099 18.2965C14.7589 18.3334 14.2053 18.3333 13.5345 18.3333H6.46558C5.79479 18.3333 5.24116 18.3334 4.79017 18.2965C4.32175 18.2582 3.89117 18.1761 3.48672 17.97C2.85951 17.6504 2.34958 17.1405 2.03 16.5133C1.82392 16.1089 1.74179 15.6783 1.70352 15.2099C1.66667 14.7589 1.66668 14.2052 1.66669 13.5344V6.46558C1.66668 5.79477 1.66667 5.24114 1.70352 4.79014C1.74179 4.32173 1.82392 3.89114 2.03 3.4867C2.34958 2.85949 2.85951 2.34955 3.48672 2.02998C3.89117 1.8239 4.32175 1.74176 4.79017 1.70349C5.24116 1.66665 5.7948 1.66665 6.46561 1.66666ZM3.33335 8.33333V11.6667H16.6667V8.33333H3.33335ZM16.6667 6.66667H3.33335V6.5C3.33335 5.78618 3.334 5.30094 3.36465 4.92586C3.3945 4.56052 3.4486 4.37368 3.51501 4.24335C3.6748 3.92974 3.92977 3.67478 4.24337 3.51499C4.3737 3.44858 4.56054 3.39447 4.92589 3.36462C5.30096 3.33398 5.7862 3.33333 6.50002 3.33333H13.5C14.2138 3.33333 14.6991 3.33398 15.0742 3.36462C15.4395 3.39447 15.6263 3.44858 15.7567 3.51499C16.0703 3.67478 16.3252 3.92974 16.485 4.24335C16.5514 4.37368 16.6055 4.56052 16.6354 4.92586C16.666 5.30094 16.6667 5.78618 16.6667 6.5V6.66667ZM16.6667 13.3333H3.33335V13.5C3.33335 14.2138 3.334 14.6991 3.36465 15.0741C3.3945 15.4395 3.4486 15.6263 3.51501 15.7566C3.6748 16.0703 3.92977 16.3252 4.24337 16.485C4.3737 16.5514 4.56054 16.6055 4.92589 16.6354C5.30096 16.666 5.7862 16.6667 6.50002 16.6667H13.5C14.2138 16.6667 14.6991 16.666 15.0742 16.6354C15.4395 16.6055 15.6263 16.5514 15.7567 16.485C16.0703 16.3252 16.3252 16.0703 16.485 15.7566C16.5514 15.6263 16.6055 15.4395 16.6354 15.0741C16.666 14.6991 16.6667 14.2138 16.6667 13.5V13.3333Z" fill="black"/>
    </symbol>

    <symbol id="icoCard" viewBox="0 0 20 20" fill="none" xmlns="http://www.w3.org/2000/svg">
        <path fill-rule="evenodd" clip-rule="evenodd" d="M6.46554 1.66666H13.5344C14.2052 1.66665 14.7588 1.66665 15.2098 1.70349C15.6782 1.74176 16.1088 1.8239 16.5133 2.02998C17.1405 2.34955 17.6504 2.85949 17.97 3.4867C18.1761 3.89114 18.2582 4.32173 18.2965 4.79014C18.3333 5.24113 18.3333 5.79476 18.3333 6.46556V13.5344C18.3333 14.2052 18.3333 14.7589 18.2965 15.2099C18.2582 15.6783 18.1761 16.1089 17.97 16.5133C17.6504 17.1405 17.1405 17.6504 16.5133 17.97C16.1088 18.1761 15.6782 18.2582 15.2098 18.2965C14.7588 18.3334 14.2052 18.3333 13.5344 18.3333H6.46552C5.79472 18.3333 5.2411 18.3334 4.79011 18.2965C4.32169 18.2582 3.8911 18.1761 3.48666 17.97C2.85945 17.6504 2.34952 17.1405 2.02994 16.5133C1.82386 16.1089 1.74173 15.6783 1.70345 15.2099C1.66661 14.7589 1.66662 14.2052 1.66663 13.5344V6.46558C1.66662 5.79477 1.66661 5.24114 1.70345 4.79014C1.74173 4.32173 1.82386 3.89114 2.02994 3.4867C2.34952 2.85949 2.85945 2.34955 3.48666 2.02998C3.8911 1.8239 4.32169 1.74176 4.79011 1.70349C5.2411 1.66665 5.79474 1.66665 6.46554 1.66666ZM3.33329 10.8333V13.5C3.33329 14.2138 3.33394 14.6991 3.36459 15.0741C3.39444 15.4395 3.44854 15.6263 3.51495 15.7566C3.67474 16.0703 3.92971 16.3252 4.24331 16.485C4.37364 16.5514 4.56048 16.6055 4.92582 16.6354C5.3009 16.666 5.78614 16.6667 6.49996 16.6667H9.16663V10.8333H3.33329ZM9.16663 9.16667H3.33329V6.5C3.33329 5.78618 3.33394 5.30094 3.36459 4.92586C3.39444 4.56052 3.44854 4.37368 3.51495 4.24335C3.67474 3.92974 3.92971 3.67478 4.24331 3.51499C4.37364 3.44858 4.56048 3.39447 4.92583 3.36462C5.3009 3.33398 5.78614 3.33333 6.49996 3.33333H9.16663V9.16667ZM10.8333 10.8333V16.6667H13.5C14.2138 16.6667 14.699 16.666 15.0741 16.6354C15.4394 16.6055 15.6263 16.5514 15.7566 16.485C16.0702 16.3252 16.3252 16.0703 16.485 15.7566C16.5514 15.6263 16.6055 15.4395 16.6353 15.0741C16.666 14.6991 16.6666 14.2138 16.6666 13.5V10.8333H10.8333ZM16.6666 9.16667H10.8333V3.33333H13.5C14.2138 3.33333 14.699 3.33398 15.0741 3.36462C15.4394 3.39447 15.6263 3.44858 15.7566 3.51499C16.0702 3.67478 16.3252 3.92974 16.485 4.24335C16.5514 4.37368 16.6055 4.56052 16.6353 4.92586C16.666 5.30094 16.6666 5.78618 16.6666 6.5V9.16667Z" fill="black"/>
    </symbol>

    <symbol id="icoSearch" viewBox="0 0 20 20" fill="none" xmlns="http://www.w3.org/2000/svg">
        <path fill-rule="evenodd" clip-rule="evenodd" d="M9.58329 3.33333C6.13151 3.33333 3.33329 6.13155 3.33329 9.58333C3.33329 13.0351 6.13151 15.8333 9.58329 15.8333C11.2609 15.8333 12.7841 15.1724 13.9067 14.0967C13.9326 14.0608 13.9618 14.0264 13.9941 13.9941C14.0265 13.9617 14.0608 13.9326 14.0967 13.9067C15.1724 12.7841 15.8333 11.2609 15.8333 9.58333C15.8333 6.13155 13.0351 3.33333 9.58329 3.33333ZM15.7396 14.5611C16.8405 13.2012 17.5 11.4693 17.5 9.58333C17.5 5.21108 13.9555 1.66666 9.58329 1.66666C5.21104 1.66666 1.66663 5.21108 1.66663 9.58333C1.66663 13.9556 5.21104 17.5 9.58329 17.5C11.4693 17.5 13.2012 16.8405 14.5611 15.7396L16.9107 18.0892C17.2361 18.4147 17.7638 18.4147 18.0892 18.0893C18.4146 17.7638 18.4147 17.2362 18.0892 16.9108L15.7396 14.5611Z" fill="black"/>
    </symbol>

    <symbol id="icoSort" viewBox="0 0 16 16" fill="none" xmlns="http://www.w3.org/2000/svg">
        <path fill-rule="evenodd" clip-rule="evenodd" d="M7.5286 2.19526C7.78894 1.93491 8.21106 1.93491 8.4714 2.19526L11.8047 5.5286C12.0651 5.78894 12.0651 6.21106 11.8047 6.4714C11.5444 6.73175 11.1223 6.73175 10.8619 6.4714L8 3.60948L5.13807 6.4714C4.87772 6.73175 4.45561 6.73175 4.19526 6.4714C3.93491 6.21106 3.93491 5.78894 4.19526 5.5286L7.5286 2.19526ZM4.19526 9.5286C4.45561 9.26825 4.87772 9.26825 5.13807 9.5286L8 12.3905L10.8619 9.5286C11.1223 9.26825 11.5444 9.26825 11.8047 9.5286C12.0651 9.78895 12.0651 10.2111 11.8047 10.4714L8.4714 13.8047C8.21106 14.0651 7.78894 14.0651 7.5286 13.8047L4.19526 10.4714C3.93491 10.2111 3.93491 9.78895 4.19526 9.5286Z" fill="#898989"/>
    </symbol>



</svg>
